<?xml version="1.0" encoding="UTF-8" standalone="no"?>
<!DOCTYPE svg PUBLIC "-//W3C//DTD SVG 1.1//EN" "http://www.w3.org/Graphics/SVG/1.1/DTD/svg11.dtd">
<svg width="100%" height="100%" viewBox="0 0 517 482" version="1.1" xmlns="http://www.w3.org/2000/svg" xmlns:xlink="http://www.w3.org/1999/xlink" xml:space="preserve" xmlns:serif="http://www.serif.com/" style="fill-rule:evenodd;clip-rule:evenodd;stroke-linejoin:round;stroke-miterlimit:2;">
    <g id="Fundo" transform="matrix(1,0,0,1,29.284116,112.923331)">
        <path d="M123.541,36.178L128.565,37.066C129.869,37.25 131.173,37.435 132.477,37.62L133.468,37.692C133.532,37.711 139.587,39.969 145.422,40.805C146.102,41.078 146.782,41.351 147.463,41.623C152.095,43.362 152.007,43.367 156.651,45.127C161.11,46.939 161.071,46.879 164.552,48.393C169.53,51.221 171.655,51.639 172.32,51.77C172.688,52.069 173.056,52.369 173.424,52.669C188.092,62.108 188.777,62.309 190.285,62.753C191.318,63.789 191.259,63.736 192.353,64.712C194.882,66.46 197.975,69.158 198.445,69.568C202.752,73.149 203.758,73.553 204.292,73.768C204.95,75.012 204.865,74.937 204.95,75.012C214.664,83.597 214.947,84.555 222.349,92.641C226.957,98.056 226.993,97.926 231.234,103.692C235.595,109.542 235.395,109.564 239.35,115.599C242.401,120.569 242.207,120.621 245.352,125.57L245.682,126.401C245.958,126.983 247.6,130.439 249.235,133.628C251.345,137.746 251.123,137.73 251.9,139.308C252.591,140.458 252.522,140.375 252.591,140.458C252.805,140.716 252.959,140.339 253.21,140.641C253.388,142.897 253.577,142.825 255.788,148.382C256.406,149.855 256.448,149.763 256.927,151.331C257.41,152.618 257.628,152.437 258.124,153.649C259.229,158.171 259.789,157.921 260.83,162.395C262.475,167.568 262.499,167.471 264.25,172.552C265.482,180.659 267.113,183.516 267.117,183.529L267.627,186.494C266.487,188.425 266.635,188.439 266.516,188.587C263.537,187.787 263.655,187.614 260.404,186.98C258.415,186.619 256.425,186.258 254.435,185.897C253.127,185.74 251.82,185.584 250.512,185.427L249.507,185.423C247.58,184.616 247.655,184.581 245.492,184.533C244.802,184.337 244.111,184.141 243.42,183.944C227.734,181.262 227.767,181.193 226.401,180.984L225.444,180.813C224.457,180.737 223.471,180.661 222.485,180.585C218.738,179.754 218.783,179.898 218.467,179.815C215.76,179.317 215.777,179.318 215.543,179.277C214.415,179.082 214.493,179.172 213.455,178.992C210.506,178.453 210.599,178.316 207.526,178.333L206.51,178.402C203.053,177.423 203.091,177.548 199.496,177.554L198.497,177.539C194.667,176.259 194.62,176.838 186.469,175.977C184.813,176.057 183.156,176.137 181.5,176.217C171.957,174.516 158.372,175.271 155.514,176.218C153.151,176.203 150.788,176.187 148.424,176.172C141.997,176.724 142.039,176.727 141.483,176.768C137.298,177.081 140.706,174.724 141.751,170.677C142.839,169.245 142.961,169.385 143.045,169.256C144.003,167.432 144.056,167.463 144.079,167.287C144.201,166.346 146.326,161.049 146.541,160.514C147.754,157.01 147.822,157.105 148.822,153.565C149.375,150.514 149.297,150.606 149.585,147.51L149.651,146.518C149.986,145.607 150.509,144.189 151.132,134.479C151.089,133.999 151.178,134.106 150.942,128.452C151.266,121.151 149.971,116.481 149.693,115.476L149.545,113.496C149.312,110.873 149.343,110.943 148.703,108.465C148.54,107.162 148.377,105.859 148.214,104.556C147.697,102.862 147.179,101.168 146.661,99.474C145.629,96.702 145.859,96.659 145.744,96.432C144.925,90.005 144.004,89.577 142.687,86.455C142.437,86.052 142.186,85.649 141.935,85.246C141.324,80.009 140.743,80.23 138.742,75.413L138.47,74.513C136.759,71.583 137.408,71.378 135.76,68.416L135.497,67.501L134.925,67.284C134.699,65.676 134.788,65.684 133.909,64.296C132.85,60.68 132.398,61.006 131.84,60.397C131.77,60.078 131.7,59.759 131.63,59.439C131.209,58.299 130.349,55.963 125.061,45.735C121.475,38.798 117.918,34.663 123.541,36.178Z" style="fill:rgb(34,84,97);fill-opacity:1;"/>
        <path d="M103.508,3.54C107.81,4.207 114.602,3.745 115.493,3.725C117.503,4.005 117.434,3.785 119.517,4.041C121.509,4.222 123.501,4.403 125.493,4.583C127.159,4.591 128.825,4.6 130.491,4.608C133.109,4.712 133.03,4.712 135.553,5.159C136.115,5.227 136.094,5.296 142.532,6.295C144.203,6.569 145.873,6.843 147.544,7.117C150.649,7.562 150.542,7.517 153.59,8.05C154.871,8.288 156.152,8.526 157.433,8.765C158.295,8.965 164.253,10.566 169.455,11.663C175.556,13.677 175.483,13.553 181.528,15.42L183.437,15.836C184.108,16.173 188.463,18.358 192.306,18.907C192.687,19.152 193.068,19.397 193.449,19.642C194.649,20.199 195.583,20.633 208.527,26.446L209.403,26.73C225.421,36.026 226.622,36.35 228.274,36.796C230.238,38.632 230.885,37.648 255.5,56.501C261.454,62.093 262.436,62.558 263.158,62.899C264.436,65.031 280.889,80.993 282.47,82.527C285.438,86.133 285.453,85.993 288.488,89.51C289.514,90.654 289.878,91.059 300.265,104.679C302.361,107.534 305.872,112.88 306.347,113.602C308.771,117.139 308.409,117.294 311.089,120.729C311.417,121.365 313.345,125.107 315.565,128.462C315.875,129.028 318.606,134.012 319.487,135.507C327.209,149.902 326.721,150.06 334.083,164.606C334.144,164.936 334.205,165.267 334.267,165.597C334.507,166.236 336.441,171.397 337.541,173.483L338.06,173.695C338.505,178.877 340.965,180.845 341.278,181.522C341.428,181.845 341.104,182.265 341.253,182.588C341.545,182.955 341.837,183.322 342.129,183.688C342.241,187.088 342.758,186.897 345.099,192.608C345.051,194.161 345.128,194.115 344.499,195.493C338.718,195.629 327.945,195.637 326.506,195.638C324.504,195.466 324.612,195.463 322.499,195.506C319.465,194.989 313.299,194.78 312.497,194.753C308.483,194.299 308.563,194.421 304.47,193.95C303.428,193.771 303.531,193.811 291.411,191.924C290.433,191.827 289.454,191.731 288.476,191.634L285.53,191.222C279.992,189.645 279.976,189.74 279.552,189.479C279.365,189.088 279.179,188.697 278.992,188.306C279.148,186.857 279.084,186.895 278.594,185.482C278.432,184.186 278.269,182.891 278.107,181.596C276.908,177.003 277.108,177.035 275.48,172.504C275.45,172.328 275.314,172.385 274.722,170.405C274.427,168.258 274.832,168.195 273.71,166.43C272.177,160.232 272.444,160.205 269.81,154.396C268.766,149.69 268.197,149.942 266.862,145.368C266.789,145.204 265.947,143.322 265.947,143.322C265.824,143.019 264.601,140.019 264.338,139.57L263.777,139.367C263.688,138.691 263.371,136.261 260.6,131.458C258.186,125.012 254.46,119.298 253.706,118.392C253.338,117.741 252.971,117.091 252.603,116.441C251.229,111.85 248.958,110.668 248.66,110.373C247.728,106.365 246.555,106.993 244.636,103.405C244.468,103.17 242.709,100.695 242.535,100.475C239.812,96.667 239.958,96.645 236.778,93.296L236.48,92.516C235.185,90.718 235.189,90.824 233.681,89.313C232.714,87.225 232.02,86.505 226.519,80.483C225.01,78.882 225.105,78.904 223.531,77.469C222.526,76.474 221.695,75.625 221.536,75.464C221.206,75.128 220.875,74.792 220.544,74.455C218.981,72.91 219.046,72.967 217.466,71.539C216.861,70.949 212.079,66.775 211.608,66.364C209.731,64.538 210.035,64.189 207.567,63.426C206.209,61.743 206.289,61.764 204.579,60.402C202.498,59 202.718,58.888 200.617,57.345C195.933,53.935 196.177,53.641 177.367,42.776C176.423,42.23 175.696,42.544 173.389,40.713C172.561,40.055 168.012,38.584 167.533,38.43C166.664,38.029 166.616,38.505 165.692,38.078C165.592,38.032 165.692,38.078 164.571,37.289C160.618,34.203 157.416,34.378 156.616,34.256C156.24,34.014 155.865,33.773 155.489,33.532C152.596,32.215 152.537,32.535 149.58,31.248C147.602,30.624 147.672,30.643 145.605,30.271C144.66,30.158 142.769,29.449 142.529,29.359C141.148,28.873 139.768,28.387 138.387,27.901L134.389,26.98C132.652,26.724 132.743,26.694 129.415,25.99L128.447,25.863C126.805,25.658 125.163,25.454 123.522,25.249C120.596,24.16 120.619,24.448 117.535,24.278L116.512,24.354C112.165,22.958 112.522,22.508 112.502,22.499C111.025,20.192 106.243,11.682 105.489,10.506C102.581,5.238 102.631,5.105 102.813,4.621C102.849,4.524 102.813,4.621 103.508,3.54Z" style="fill:rgb(34,84,97);fill-opacity:1;"/>
        <path d="M156.5,184.297C160.167,184.297 163.834,184.298 167.5,184.299C167.903,184.357 168.098,184.942 168.501,185C169.821,185.191 171.171,184.949 172.503,185.023C177.062,185.278 176.962,185.502 181.438,185.844C188.586,186.308 190.184,187.138 193.571,186.175C194.214,186.169 194.856,186.164 195.499,186.158C197.357,187.383 197.383,187.239 199.565,187.183C200.55,187.205 201.535,187.228 202.521,187.251C204.416,188.043 204.391,188.115 206.381,187.817C208.496,188.143 208.394,188.239 210.485,188.23C210.666,188.342 211.145,190.209 215.6,189.153L216.435,188.989C218.081,190.519 218.274,190.348 220.401,189.744C222.123,190.137 222.091,190.17 222.511,190.168C222.746,190.272 222.355,191.195 225.584,191.144C226.559,191.179 227.534,191.215 228.509,191.25C229.379,191.742 229.182,192.522 232.615,192.175C233.243,192.21 233.872,192.245 234.5,192.281C236.395,193.437 236.415,193.165 238.587,193.1C240.61,194.083 240.529,194.69 243.59,194.137C244.072,194.093 244.499,194.054 249.523,195.281C251.74,196.185 251.679,196.619 254.593,196.182C257.15,197.586 259.191,197.194 259.59,197.117C262.089,196.902 261.876,198.232 264.448,197.991C265.175,197.923 270.938,199.14 271.499,199.258C273.847,200.693 273.917,200.803 276.588,200.167C279.18,201.464 281.179,201.176 281.582,201.119C282.225,201.13 282.868,201.141 283.511,201.152C285.589,202.519 285.621,202.772 288.598,202.15C289.24,202.2 289.882,202.249 290.524,202.299C292.46,203.16 292.393,203.093 294.603,203.162C296.085,203.269 296.009,203.274 297.471,203.205C299.415,204.399 299.426,204.805 302.59,204.154C303.553,204.154 304.516,204.154 305.48,204.154C307.957,205.238 307.934,205.097 310.582,205.139C314.69,205.449 345.46,205.207 346.418,205.135C349.102,205.232 349.138,205.413 351.489,204.131L352.419,204.078C355.11,204.453 355.192,204.703 357.524,203.226C358.994,203.274 358.922,203.274 360.378,203.142C362.587,203.139 362.568,203.311 364.484,202.266C366.136,202.192 366.099,202.379 367.609,201.769C369.571,202.118 369.54,202.043 371.472,201.401C373.542,201.126 373.473,201.093 375.435,200.297C377.107,200.202 377.02,200.116 378.462,199.215C378.843,199.051 379.224,198.887 379.605,198.723C381.148,198.987 381.031,198.712 382.379,198.124L382.585,197.7C384.071,198.022 384.017,197.744 385.368,197.098L385.576,196.67C389.232,197.677 389.083,196.561 391.387,195.151C392.297,195.016 393.456,193.86 393.606,193.711C395.073,194.054 395.018,193.761 396.354,193.069C399.734,190.698 404.834,188.16 406.626,186.637C412.357,181.767 410.471,188.047 410.256,188.282C409.323,189.304 402.471,195.568 400.767,195.997C398.734,195.877 396.945,196.922 393.724,199.835C391.034,201.063 391.341,201.445 388.717,202.884C385.036,204.727 384.71,204.117 381.634,206.864C380.975,207.18 380.315,207.496 379.655,207.812C378.673,207.887 378.785,207.955 376.58,208.684C375.956,209.094 375.333,209.505 374.709,209.916C370.518,211.858 370.2,210.993 365.603,213.847C364.957,214.169 364.311,214.491 363.665,214.813C361.464,214.889 361.471,214.726 359.652,215.899C356.437,215.898 353.968,217.535 353.541,217.818L352.628,217.89C351.599,218.204 350.57,218.517 349.541,218.831C349.167,218.986 348.792,219.142 348.417,219.297C346.426,218.804 346.431,218.901 344.525,219.595C342.399,219.867 342.471,219.949 340.616,220.889C335.553,219.588 335.339,221.31 334.501,221.818C333.195,221.845 331.89,221.872 330.584,221.899C326.654,221.619 326.918,222.598 326.503,222.815C324.486,222.778 324.584,222.732 322.594,222.894C322.428,222.87 320.515,222.601 320.515,222.601C318.174,222.557 317.799,223.743 317.482,223.876C313.589,223.644 301.876,223.815 300.519,223.834C297.602,222.47 297.611,222.411 294.412,222.894C291.404,222.677 291.474,222.792 287.492,222.827C285.485,222.126 285.703,221.685 283.504,221.434C281.264,221.18 279.414,221.878 279.41,221.878C278.975,221.85 279.04,222.039 278.584,222.01C278.415,221.999 278.429,221.989 276.482,221.735C273.562,220.482 273.509,220.874 270.38,220.872C269.754,220.828 269.128,220.784 268.502,220.741C266.562,219.713 266.599,219.649 264.388,219.895C263.76,219.871 263.132,219.847 262.504,219.824C260.182,218.366 260.126,218.597 257.402,218.884L256.573,219.058C254.908,217.414 254.694,217.917 252.385,217.905C251.931,217.871 252.034,218.049 251.592,218.016C251.424,218.004 251.437,217.999 249.494,217.782C249.191,217.603 249.357,216.328 245.378,216.898L244.555,217.061C242.892,215.151 242.564,215.824 240.393,215.916C237.329,216.146 237.538,214.913 234.485,214.805C233.45,214.506 232.414,214.207 231.378,213.909C230.747,213.861 230.117,213.813 229.486,213.764C227.129,212.397 227.055,212.235 224.393,212.942C224.171,212.794 224.524,211.429 220.397,211.897L219.559,212.063C217.964,210.317 217.713,210.837 215.387,210.862L214.585,211.046C213.274,209.714 213.349,209.538 211.529,209.372C208.419,209.089 208.49,208.483 205.386,208.901L204.555,209.07C202.932,207.166 202.608,207.797 200.393,207.883C196.897,207.249 196.959,207.294 193.49,206.743C191.604,205.601 191.596,205.827 189.389,205.872L188.581,206.028C185.684,203.369 184.969,204.068 182.394,204.906C180.097,203.546 180.04,203.773 177.421,203.866C176.962,203.844 177.042,204.05 176.575,204.027C176.406,204.019 176.42,204.008 174.484,203.759C172.528,202.802 172.583,202.771 170.388,202.942C168.762,202.882 167.135,202.821 165.508,202.761C162.603,201.461 162.6,201.407 159.389,201.912C158.765,201.881 158.14,201.851 157.515,201.821C156.513,201.464 156.783,200.845 154.489,200.743C138.91,200.052 136.112,200.543 134.54,200.82C130.944,200.643 131.025,200.306 127.499,200.475C123.798,200.652 123.727,200.144 120.476,201.873C119.029,201.809 119.1,201.988 117.605,201.909C113.449,201.122 113.412,201.26 109.498,202.732C108.375,202.778 103.649,202.973 95.619,204.907C93.475,204.85 93.435,204.614 91.619,205.909C90.588,206.197 89.556,206.485 88.525,206.773C85.965,206.938 86.131,207.49 83.593,207.86C80.996,207.787 81.123,208.487 78.525,208.582C75.704,208.684 75.894,209.133 73.531,210.82C72.692,211.126 64.603,214.084 63.301,215.304C61.167,217.305 54.262,220.015 56.231,215.351C56.378,215 65.601,208.961 65.69,208.94C66.597,208.723 66.563,208.798 67.265,208.232C70.827,208.297 72.156,206.249 72.314,206.167C72.636,206.007 74.308,205.176 76.431,204.378L77.353,203.121C78.244,203.003 79.203,202.284 79.344,202.179C83.365,202.041 85.302,199.679 86.383,199.141C87.292,199.013 88.21,198.302 88.347,198.195C91.686,198.208 95.8,195.54 96.376,195.167C97.377,194.814 98.378,194.46 99.379,194.107L99.577,193.682C103.118,194.734 103.081,193.805 106.414,192.254C108.077,192.049 107.978,191.947 109.381,191.117C112.159,191.224 116.853,189.646 117.48,189.435C119.658,189.375 119.59,189.315 121.487,188.239C126.026,187.971 125.899,187.31 130.432,187.162C132.577,187.208 132.548,187.152 134.5,186.138C135.031,186.164 134.95,185.964 135.484,185.99C135.639,185.997 135.627,186.001 137.419,186.143C141.689,186.963 145.785,186.166 146.498,186.027C146.929,185.943 147.073,185.261 147.504,185.177C152.069,186.277 152.131,186.096 156.5,184.297Z" style="fill:rgb(62,182,181);fill-opacity:0.96;"/>
        <path d="M121.522,210.208C146.332,210.211 146.319,210.261 148.474,210.215C149.124,210.556 152.776,212.474 157.601,211.138C158.561,211.163 159.521,211.189 160.481,211.214C160.747,211.362 161.089,212.909 165.583,212.15C166.559,212.154 167.536,212.157 168.512,212.161C170.347,213.303 170.371,213.202 172.581,213.159C173.225,213.183 173.87,213.206 174.514,213.23C176.458,214.311 176.472,214.155 178.626,214.123C180.054,214.269 179.975,214.277 181.48,214.215C182.356,214.813 182.155,215.89 185.598,215.088C187.379,216.129 187.387,216.283 189.403,215.74C189.896,215.849 193.535,216.653 195.522,217.28C197.358,218.087 200.161,219.954 204.61,219.124C206.004,219.763 205.901,220.018 207.406,219.732C210.552,220.444 210.345,221.053 213.503,221.226C215.353,222.454 215.383,222.565 217.615,222.108C218.999,222.741 218.892,223.023 220.419,222.697C225.094,223.697 224.921,224.067 229.514,225.305C234.486,228.121 236.998,227.202 237.623,227.097C238.961,227.704 238.854,227.98 240.373,227.809C241.431,228.224 241.377,228.203 242.516,228.273C244.412,229.242 244.39,229.089 246.608,229.112C248.635,230.134 248.571,230.763 251.609,230.1C253.434,231.315 253.45,231.388 255.603,231.123C259.143,230.739 258.935,232.292 262.485,232.203C264.796,233.693 264.868,233.818 267.591,233.132C270.043,234.473 272.19,234.181 272.595,234.126C273.23,234.149 273.866,234.173 274.502,234.196C276.831,235.485 276.878,235.296 279.585,235.137C280.56,235.165 281.535,235.193 282.51,235.22C283.916,235.772 283.833,236.032 285.41,235.713C291.509,236.298 291.417,236.179 297.483,236.228C305.591,239.454 305.822,237.694 314.495,237.343C314.827,237.329 316.054,237.279 318.506,236.28C326.09,236.181 325.987,236.138 333.417,235.134C335.587,235.128 335.6,235.248 337.455,234.134L338.401,234.065C341.452,234.702 341.382,234.075 343.4,233.093C345.645,233.184 345.658,233.361 347.47,232.194L348.386,232.143C349.411,231.834 350.437,231.526 351.462,231.217C353.26,230.5 355.262,229.81 355.595,229.696C358.717,230.556 358.698,229.909 361.384,228.16C362.315,227.673 372.119,222.55 373.422,222.933C376.672,223.888 373.604,226.199 373.384,226.365C372.442,227.074 372.256,226.811 371.111,228.244C369.904,229.755 369.297,228.569 367.666,229.692C365.335,230.003 365.479,230.238 363.697,231.829C351.524,238.036 351.623,238.139 350.489,238.477C349.887,238.938 349.284,239.398 348.682,239.859C344.502,241.874 344.007,240.665 339.615,243.861C339.313,243.907 339.01,243.953 338.707,243.999C336.148,244.92 335.989,244.338 333.598,245.761C331.891,245.864 331.978,245.967 330.624,246.881L330.414,247.305C328.88,246.947 328.978,247.22 327.541,247.809C327.163,247.96 326.784,248.112 326.405,248.263C323.911,247.729 323.987,248.465 321.515,248.559C319.412,248.639 319.592,249.398 317.481,249.408C315.463,249.417 314.546,250.804 314.495,250.828C309.947,250.968 310.11,251.731 305.575,251.891C300.419,251.025 299.776,252.786 299.504,252.877L295.51,252.862C295.214,252.802 278.459,251.447 273.551,253.099C268.422,252.817 268.606,251.27 263.438,251.857C262.607,251.836 262.642,251.873 260.504,252.015C259.852,252.059 259.18,252.156 258.545,252.006C254.563,251.062 254.648,250.811 250.506,250.752C249.093,249.835 249.241,249.706 247.547,249.275C243.945,248.896 243.992,248.086 240.396,248.929C237.337,249.085 237.562,247.88 234.482,247.803C233.447,247.502 232.412,247.2 231.378,246.899L230.562,247.054C229.292,245.764 229.362,245.598 227.518,245.428C224.302,245.132 224.309,244.886 222.584,245.301C222.18,245.213 222.231,245.205 217.565,244.052C216.622,243.009 216.917,242.527 215.492,242.535C213.359,242.546 213.578,241.626 211.495,241.52C208.982,241.393 209.036,240.704 206.59,241.284C205.602,241.034 201.893,239.927 201.485,239.805C201.326,239.703 199.494,238.524 199.494,238.524C196.128,238.519 195.935,236.691 190.395,236.856C187.876,236.386 187.938,236.371 185.489,235.798C184.067,234.838 184.066,235.06 182.461,234.624C180.504,234.093 180.565,233.747 178.578,234.319L178.384,233.908C176.526,232.768 176.535,232.942 174.378,232.887L173.572,233.068C171.766,231.015 171.436,231.816 169.37,231.892C167.59,230.715 167.571,230.918 165.387,230.923C163.617,229.895 163.619,229.741 161.606,230.241C159.811,229.847 159.841,229.822 159.492,229.82C158.455,229.518 157.419,229.217 156.382,228.915C155.95,228.876 156.008,229.059 155.596,229.022C155.427,229.007 155.44,229.003 153.493,228.76C152.941,228.439 153.215,227.352 149.381,227.886C148.757,227.865 148.134,227.845 147.511,227.824C147.481,227.805 147.355,226.174 143.4,226.901L142.556,227.041C140.912,225.505 140.771,225.783 138.607,226.217C134.064,225.614 133.931,226.962 129.596,225.253C127.455,224.408 127.477,224.844 123.505,224.779C121.695,224.138 121.859,223.73 118.496,223.651C101.076,223.238 100.999,223.36 97.497,224.77C91.945,224.738 92.041,224.647 86.588,224.941C82.256,224.691 82.574,225.759 82.515,225.787L81.532,225.775C76.216,225.604 76.439,226.59 75.538,226.848L74.598,226.908C73.879,226.915 73.208,226.452 72.49,226.459C72.231,226.461 72.279,226.567 69.609,227.935C67.433,227.514 67.396,227.599 65.54,228.768L64.624,228.859C63.623,229.206 62.623,229.553 61.622,229.9C60.602,230.24 59.582,230.58 58.562,230.92C57.846,231.166 43.169,236.216 49.129,230.194C51.022,228.282 51.234,228.772 52.341,228.185C52.761,228.155 52.79,229.133 53.21,229.103C53.696,229.068 53.78,228.248 54.225,228.05C54.555,227.903 54.969,228.311 55.302,228.171C55.741,227.987 55.887,227.367 56.321,227.17C57.811,226.495 57.905,226.918 59.367,226.201C59.802,225.988 59.942,225.371 60.377,225.158C61.273,225.041 62.23,224.329 62.372,224.224C64.456,224.06 64.263,223.362 66.417,223.291C68.422,223.224 68.17,222.684 70.4,221.168C70.574,221.145 70.396,220.869 72.385,220.232C73.379,219.862 74.372,219.492 75.366,219.121C80.688,219.38 80.957,217.547 81.472,217.169C82.605,216.779 82.51,216.792 82.605,216.779C84.076,216.579 84.054,216.692 85.369,216.094C89.372,216.466 89.195,215.53 89.472,215.411C91.213,215.276 91.101,215.147 92.5,214.203C93.125,214.174 93.75,214.145 94.375,214.117C95.404,213.822 96.433,213.528 97.462,213.233L98.391,213.143C101.097,213.314 101.148,213.522 103.479,212.2L104.414,212.137C107.047,212.101 107.012,212.305 109.516,211.225C110.476,211.195 111.437,211.166 112.398,211.136C117.404,212.379 120.873,210.55 121.522,210.208Z" style="fill:rgb(62,182,181);fill-opacity:0.96;"/>
        <path d="M126.504,34.721C126.257,34.813 126.379,34.873 123.541,36.178C117.918,34.663 121.475,38.798 125.061,45.735C130.349,55.963 131.209,58.299 131.63,59.439C130.518,58.35 130.202,58.853 129.216,57.703C127.108,55.244 123.298,44.128 120.553,41.438C118.947,39.863 117.41,31.219 122.666,34.183C123.67,34.749 123.673,34.524 126.504,34.721Z" style="fill:rgb(125,151,158);fill-opacity:0.07;"/>
        <path d="M319.487,135.507L320.333,135.641C321.789,136.258 322.132,135.91 322.568,137.472C323.35,140.267 327.871,146.675 328.481,149.508C328.883,151.379 330.534,154.011 330.762,154.376C333.995,159.532 333.6,159.657 334.465,162.512C334.337,163.21 334.21,163.908 334.083,164.606C326.721,150.06 327.209,149.902 319.487,135.507Z" style="fill:rgb(105,133,138);fill-opacity:0.1;"/>
        <path d="M228.274,36.796C231.105,37.141 231.176,36.827 233.561,38.388C236.36,40.221 236.326,40.259 236.598,40.356C239.385,41.347 238.428,43.273 240.45,43.578C242.318,43.86 241.676,45.14 243.522,45.463C245.446,45.799 244.609,47.264 246.479,47.556C249.548,48.033 248.983,51.319 251.501,51.498C253.495,51.639 253.045,52.316 254.585,54.424C255.092,55.118 254.9,55.106 255.222,55.801L255.5,56.501C230.885,37.648 230.238,38.632 228.274,36.796Z" style="fill:rgb(104,128,135);fill-opacity:0.15;"/>
        <path d="M167.533,38.43C168.012,38.584 172.561,40.055 173.389,40.713C175.696,42.544 176.423,42.23 177.367,42.776C196.177,53.641 195.933,53.935 200.617,57.345L199.642,57.325C199.283,57.303 198.921,57.368 198.562,57.345C196.664,57.223 197.362,55.811 195.52,55.454C195.241,55.4 193.678,55.097 192.65,53.368C191.099,50.761 188.622,51.619 187.662,50.332C186.458,48.717 186.454,48.69 184.548,48.38C181.975,47.961 180.211,45.068 178.434,44.931C176.291,44.766 172.612,41.422 169.534,40.439C168.99,40.265 169.074,40.174 167.533,38.43Z" style="fill:rgb(102,125,132);fill-opacity:0.19;"/>
        <path d="M263.158,62.899C265.662,63.062 266.007,62.5 267.51,64.492C268.447,65.734 268.042,66.048 269.361,66.793C271.798,68.171 280.129,77.636 280.387,77.764C280.76,77.948 282.211,78.664 282.47,82.527C280.889,80.993 264.436,65.031 263.158,62.899Z" style="fill:rgb(180,213,214);fill-opacity:0.03;"/>
        <path d="M155.514,176.218C158.372,175.271 171.957,174.516 181.5,176.217C179.455,176.592 166.734,178.927 155.514,176.218Z" style="fill:rgb(189,211,216);fill-opacity:0.06;"/>
        <path d="M204.292,73.768C204.393,73.783 206.662,73.036 209.492,76.507C211.647,79.15 211.238,79.354 211.44,79.561C211.65,79.775 212.106,79.485 212.333,79.682C212.504,79.83 212.394,79.828 214.398,81.612C222.177,88.539 222.28,90.643 222.33,91.666L222.349,92.641C214.947,84.555 214.664,83.597 204.95,75.012C204.865,74.937 204.95,75.012 204.292,73.768Z" style="fill:rgb(106,135,140);fill-opacity:0.15;"/>
        <path d="M97.497,224.77C100.999,223.36 101.076,223.238 118.496,223.651C121.859,223.73 121.695,224.138 123.505,224.779C109.79,225.083 103.671,225.508 97.497,224.77Z" style="fill:rgb(189,228,234);fill-opacity:0.05;"/>
        <path d="M209.403,26.73L211.625,26.142C216.782,28.069 215.966,29.178 216.458,29.541C217.266,30.138 219.723,29.925 220.499,30.501C224.731,33.641 226.677,31.799 228.274,36.796C226.622,36.35 225.421,36.026 209.403,26.73Z" style="fill:rgb(109,133,140);fill-opacity:0.13;"/>
        <path d="M295.51,252.862C289.088,255.555 275.961,254.162 273.551,253.099C278.459,251.447 295.214,252.802 295.51,252.862Z" style="fill:rgb(179,241,238);fill-opacity:0.04;"/>
        <path d="M173.424,52.669L175.628,52.149C176.827,52.551 176.812,52.378 177.771,53.149C178.658,53.863 178.323,54.274 179.49,54.523C181.018,54.85 182.167,55.607 182.377,55.745C183.266,56.331 182.864,56.627 183.65,57.322C185.696,59.131 187.711,56.956 190.285,62.753C188.777,62.309 188.092,62.108 173.424,52.669Z" style="fill:rgb(105,133,141);fill-opacity:0.14;"/>
        <path d="M134.54,200.82C136.112,200.543 138.91,200.052 154.489,200.743C156.783,200.845 156.513,201.464 157.515,201.821C139.466,202.079 139.327,202.908 135.556,201.329L134.54,200.82Z" style="fill:rgb(178,240,240);fill-opacity:0.02;"/>
        <path d="M288.488,89.51L289.182,89.792C289.852,90.147 289.826,90.019 290.506,90.493C293.072,92.28 294.237,91.496 294.486,94.505C294.557,95.356 294.659,95.247 295.383,95.627C299.461,97.766 300.042,103.088 300.125,103.842L300.265,104.679C289.878,91.059 289.514,90.654 288.488,89.51Z" style="fill:rgb(102,125,134);fill-opacity:0.16;"/>
        <path d="M297.483,236.228C308.252,235.174 316.834,236.099 318.506,236.28C316.054,237.279 314.827,237.329 314.495,237.343C305.822,237.694 305.591,239.454 297.483,236.228Z" style="fill:rgb(192,241,242);fill-opacity:0.07;"/>
        <path d="M193.449,19.642C196.088,18.537 196.171,18.997 198.666,20.249C204.721,23.286 206.259,21.221 208.424,25.593L208.527,26.446C195.583,20.633 194.649,20.199 193.449,19.642Z" style="fill:rgb(146,166,171);fill-opacity:0.07;"/>
        <path d="M141.751,170.677C140.706,174.724 137.298,177.081 141.483,176.768C142.039,176.727 141.997,176.724 148.424,176.172C148.423,176.174 148.709,177.516 147.369,178.19C145.275,179.243 145.315,178.294 142.516,177.152C142.479,177.137 136.079,179.129 136.919,176.596C138.446,171.989 141.182,170.903 141.751,170.677Z" style="fill:rgb(115,138,145);fill-opacity:0.16;"/>
        <path d="M222.33,91.666C224.666,92.793 224.463,92.982 226.483,94.518C228.53,96.074 227.259,97.116 229.424,98.579C231.108,99.717 231.384,102.205 231.423,102.559L231.234,103.692C226.993,97.926 226.957,98.056 222.349,92.641L222.33,91.666Z" style="fill:rgb(106,139,146);fill-opacity:0.15;"/>
        <path d="M104.747,10.319L105.489,10.506C106.243,11.682 111.025,20.192 112.502,22.499L111.687,22.356C108.1,20.987 109.367,19.778 107.152,16.707C103.606,11.793 104.765,11.034 104.747,10.319Z" style="fill:rgb(116,137,147);fill-opacity:0.13;"/>
        <path d="M226.401,180.984C227.767,181.193 227.734,181.262 243.42,183.944C237.807,186.98 237.646,183.564 235.525,183.783C233.908,183.95 233.787,184.444 232.565,183.418C230.491,181.676 229.685,184.044 227.575,182.393C226.636,181.659 226.507,181.112 226.401,180.984Z" style="fill:rgb(99,131,135);fill-opacity:0.2;"/>
        <path d="M231.423,102.559C233.522,103.622 234.107,103.25 234.45,105.52C234.57,106.309 234.721,106.149 235.427,106.585C237.014,107.564 235.937,108.39 237.435,109.569C238.222,110.188 238.46,111.329 238.496,111.502C238.548,111.754 238.836,113.131 239.357,114.605L239.35,115.599C235.395,109.564 235.595,109.542 231.234,103.692L231.423,102.559Z" style="fill:rgb(101,131,136);fill-opacity:0.17;"/>
        <path d="M245.682,126.401L246.272,126.665C248.992,128.092 248.264,128.736 249.813,131.342C250.088,131.806 251.932,134.908 252.77,137.402C252.48,138.037 252.19,138.673 251.9,139.308C251.123,137.73 251.345,137.746 249.235,133.628C247.6,130.439 245.958,126.983 245.682,126.401Z" style="fill:rgb(104,132,136);fill-opacity:0.15;"/>
        <path d="M134.54,200.82L135.556,201.329C131.074,202.732 121.68,201.971 120.476,201.873C123.727,200.144 123.798,200.652 127.499,200.475C131.025,200.306 130.944,200.643 134.54,200.82Z" style="fill:rgb(175,235,236);fill-opacity:0.05;"/>
        <path d="M149.693,115.476C149.971,116.481 151.266,121.151 150.942,128.452C145.812,123.487 148.485,122.484 149.693,115.476Z" style="fill:rgb(152,178,181);fill-opacity:0.13;"/>
        <path d="M106.498,1.739C108.008,2.054 107.973,2.063 109.511,1.733C112.876,1.763 113.039,1.499 115.493,3.725C114.602,3.745 107.81,4.207 103.508,3.54C104.946,2.507 104.813,2.423 106.498,1.739Z" style="fill:rgb(70,123,129);fill-opacity:0.1;"/>
        <path d="M151.132,134.479C150.509,144.189 149.986,145.607 149.651,146.518C148.494,143.333 148.626,138.241 148.645,137.517C148.675,136.335 150.881,134.669 151.132,134.479Z" style="fill:rgb(193,203,205);fill-opacity:0.05;"/>
        <path d="M300.125,103.842C300.845,104.012 301.335,103.055 302.883,105.287C303.684,106.441 303.31,106.676 304.455,107.545C305.965,108.692 304.976,109.411 306.446,110.558C307.21,111.155 307.167,113.518 307.163,113.782L306.347,113.602C305.872,112.88 302.361,107.534 300.265,104.679L300.125,103.842Z" style="fill:rgb(107,134,138);fill-opacity:0.14;"/>
        <path d="M167.5,184.299C182.234,183.797 182.165,184.371 183.469,184.858C182.792,185.187 182.115,185.515 181.438,185.844C176.962,185.502 177.062,185.278 172.503,185.023C171.171,184.949 169.821,185.191 168.501,185C168.098,184.942 167.903,184.357 167.5,184.299Z" style="fill:rgb(120,177,176);fill-opacity:0.16;"/>
        <path d="M253.706,118.392C254.46,119.298 258.186,125.012 260.6,131.458C258.136,129.224 257.5,129.732 256.45,126.53C255.329,123.115 256.106,122.839 255.597,122.429C254.965,121.92 254.828,122.188 254.355,121.586C253.592,120.617 253.798,120.594 253.69,119.418L253.706,118.392Z" style="fill:rgb(91,117,122);fill-opacity:0.19;"/>
        <path d="M239.357,114.605C241.555,116.031 241.99,115.644 242.581,117.45C242.714,117.858 243.888,121.448 244.576,122.433C244.666,122.562 245.019,121.918 246.18,123.576C245.904,124.24 245.628,124.905 245.352,125.57C242.207,120.621 242.401,120.569 239.35,115.599L239.357,114.605Z" style="fill:rgb(91,124,129);fill-opacity:0.16;"/>
        <path d="M269.81,154.396C272.444,160.205 272.177,160.232 273.71,166.43C273.463,167.064 273.216,167.698 272.969,168.332C272.855,167.87 271.827,163.706 271.166,162.666C270.822,162.125 271.118,159.104 270.563,158.463C269.01,156.669 269.004,156.699 268.833,156.412L269.81,154.396Z" style="fill:rgb(98,125,130);fill-opacity:0.19;"/>
        <path d="M169.455,11.663C173.235,11.132 173.11,10.683 173.421,10.777C179.648,12.654 181.108,14.802 181.528,15.42C175.483,13.553 175.556,13.677 169.455,11.663Z" style="fill:rgb(101,128,136);fill-opacity:0.17;"/>
        <path d="M133.468,37.692C139.922,36.543 140.085,37.072 145.422,40.805C139.587,39.969 133.532,37.711 133.468,37.692Z" style="fill:rgb(95,124,129);fill-opacity:0.17;"/>
        <path d="M157.433,8.765C161.739,7.982 162.102,6.767 165.558,9.384C167.215,10.638 167.679,9.63 169.296,10.934C169.49,11.09 169.261,11.507 169.455,11.663C164.253,10.566 158.295,8.965 157.433,8.765Z" style="fill:rgb(95,124,128);fill-opacity:0.18;"/>
        <path d="M183.469,184.858C189.451,184.834 191.471,184.064 193.571,186.175C190.184,187.138 188.586,186.308 181.438,185.844C182.115,185.515 182.792,185.187 183.469,184.858Z" style="fill:rgb(182,231,232);fill-opacity:0.08;"/>
        <path d="M147.463,41.623C152.754,39.594 154.253,43.475 159.536,44.431C158.023,44.602 158.075,44.464 156.651,45.127C152.007,43.367 152.095,43.362 147.463,41.623Z" style="fill:rgb(101,118,128);fill-opacity:0.13;"/>
        <path d="M226.519,80.483C232.02,86.505 232.714,87.225 233.681,89.313C231.485,89.18 230.65,89.703 230.559,87.482C230.543,87.104 230.934,86.661 230.708,86.357C230.572,86.174 230.356,86.546 228.301,84.818C226.746,83.512 226.826,83.436 226.661,81.352L226.519,80.483Z" style="fill:rgb(107,131,138);fill-opacity:0.18;"/>
        <path d="M291.411,191.924C303.531,193.811 303.428,193.771 304.47,193.95C299.854,196.587 299.311,194.814 297.507,193.405C296.492,193.536 295.477,193.668 294.462,193.8C292.515,193.62 292.66,193.369 291.411,191.924Z" style="fill:rgb(74,123,129);fill-opacity:0.23;"/>
        <path d="M255.222,55.801C255.904,55.902 259.609,56.45 262.388,60.584C263.131,61.69 263.181,61.617 263.23,61.719C263.4,62.074 262.988,62.544 263.158,62.899C262.436,62.558 261.454,62.093 255.5,56.501L255.222,55.801Z" style="fill:rgb(96,134,140);fill-opacity:0.15;"/>
        <path d="M363.697,231.829L364.722,231.946C358.26,236.14 358.188,235.964 355.69,236.892C354.141,237.468 352.927,238.573 352.719,238.762C351.976,238.667 351.233,238.572 350.489,238.477C351.623,238.139 351.524,238.036 363.697,231.829Z" style="fill:rgb(103,169,173);fill-opacity:0.22;"/>
        <path d="M261.334,159.609C261.746,161.161 262.05,161.04 262.136,162.628C262.14,162.706 262.177,163.392 262.274,163.593C264.934,169.132 264.87,169.149 265.195,169.57C264.88,170.564 264.565,171.558 264.25,172.552C262.499,167.471 262.475,167.568 260.83,162.395C261.381,161.024 261.311,161.063 261.334,159.609Z" style="fill:rgb(61,101,107);fill-opacity:0.17;"/>
        <path d="M148.682,149.575C148.729,150.905 148.775,152.235 148.822,153.565C147.822,157.105 147.754,157.01 146.541,160.514C144.965,154.929 146.402,154.967 148.682,149.575Z" style="fill:rgb(110,137,143);fill-opacity:0.14;"/>
        <path d="M138.742,75.413C140.743,80.23 141.324,80.009 141.935,85.246C140.035,84.051 139.668,81.856 138.766,80.363C137.379,78.066 137.864,77.948 138.742,75.413Z" style="fill:rgb(117,136,143);fill-opacity:0.16;"/>
        <path d="M142.687,86.455C144.004,89.577 144.925,90.005 145.744,96.432C144.045,93.989 140.875,91.979 142.687,86.455Z" style="fill:rgb(110,136,144);fill-opacity:0.16;"/>
        <path d="M311.458,118.51C311.644,119.058 312.669,122.078 315.477,124.526C316.201,125.157 316.045,127.908 316.165,128.76L315.565,128.462C313.345,125.107 311.417,121.365 311.089,120.729C311.212,119.99 311.335,119.25 311.458,118.51Z" style="fill:rgb(95,113,118);fill-opacity:0.15;"/>
        <path d="M282.47,82.527C283.636,82.683 283.547,82.705 284.545,83.441C287.928,85.935 288.678,85.647 289.182,89.792L288.488,89.51C285.453,85.993 285.438,86.133 282.47,82.527Z" style="fill:rgb(103,122,129);fill-opacity:0.17;"/>
        <path d="M326.405,248.263C325.736,248.43 321.844,250.249 320.461,250.142C319.249,250.048 319.47,250.571 318.329,251.005C317.497,251.321 314.798,250.878 314.495,250.828C314.546,250.804 315.463,249.417 317.481,249.408C319.592,249.398 319.412,248.639 321.515,248.559C323.987,248.465 323.911,247.729 326.405,248.263Z" style="fill:rgb(123,187,185);fill-opacity:0.17;"/>
        <path d="M145.474,4.742C144.724,4.975 144.821,5 142.532,6.295C136.094,5.296 136.115,5.227 135.553,5.159C139.93,2.26 140.284,3.813 145.474,4.742Z" style="fill:rgb(120,134,144);fill-opacity:0.11;"/>
        <path d="M342.129,183.688C344.633,186.399 344.858,186.305 345.362,189.544C345.544,190.714 345.894,190.391 346.07,190.671C345.746,191.317 345.422,191.962 345.099,192.608C342.758,186.897 342.241,187.088 342.129,183.688Z" style="fill:rgb(70,109,115);fill-opacity:0.16;"/>
        <path d="M338.06,173.695C341.229,177.959 343.491,177.884 341.253,182.588C341.104,182.265 341.428,181.845 341.278,181.522C340.965,180.845 338.505,178.877 338.06,173.695Z" style="fill:rgb(97,118,122);fill-opacity:0.15;"/>
        <path d="M159.536,44.431C164.913,45.506 164.272,47.217 164.453,47.556L164.552,48.393C161.071,46.879 161.11,46.939 156.651,45.127C158.075,44.464 158.023,44.602 159.536,44.431Z" style="fill:rgb(108,139,144);fill-opacity:0.15;"/>
        <path d="M103.508,3.54C102.813,4.621 102.849,4.524 102.813,4.621C102.631,5.105 102.581,5.238 105.489,10.506L104.747,10.319C103.974,9.968 103.828,10.296 103.288,9.657C97.948,3.34 103.018,3.523 103.508,3.54Z" style="fill:rgb(100,120,130);fill-opacity:0.2;"/>
        <path d="M266.862,145.368C268.197,149.942 268.766,149.69 269.81,154.396L268.833,156.412C268.133,151.815 267.019,152.16 266.525,147.485C266.637,146.779 266.75,146.074 266.862,145.368Z" style="fill:rgb(93,117,122);fill-opacity:0.16;"/>
        <path d="M190.395,236.856C195.935,236.691 196.128,238.519 199.494,238.524C199.494,238.524 201.326,239.703 201.485,239.805C197.596,240.43 197.874,239.099 197.365,238.98C195.957,238.651 195.96,239.505 194.645,239.023C193.297,238.53 190.725,237.047 190.395,236.856Z" style="fill:rgb(122,184,179);fill-opacity:0.17;"/>
        <path d="M183.437,15.836C184.361,15.36 184.234,14.377 185.633,15.188C187.48,16.258 188.808,15.704 190.273,16.865C191.41,17.766 191.113,17.972 192.306,18.907C188.463,18.358 184.108,16.173 183.437,15.836Z" style="fill:rgb(87,119,126);fill-opacity:0.17;"/>
        <path d="M315.565,128.462L316.165,128.76C320.567,129.963 319.495,131.226 320.333,135.641L319.487,135.507C318.606,134.012 315.875,129.028 315.565,128.462Z" style="fill:rgb(104,131,135);fill-opacity:0.15;"/>
        <path d="M306.347,113.602L307.163,113.782C308.146,114.125 309.042,113.333 311.458,118.51C311.335,119.25 311.212,119.99 311.089,120.729C308.409,117.294 308.771,117.139 306.347,113.602Z" style="fill:rgb(94,128,133);fill-opacity:0.15;"/>
        <path d="M264.25,172.552C264.328,172.716 265.229,174.6 265.229,174.6C265.536,178.441 269.567,178.065 267.117,183.529C267.113,183.516 265.482,180.659 264.25,172.552Z" style="fill:rgb(69,106,112);fill-opacity:0.22;"/>
        <path d="M275.48,172.504C277.108,177.035 276.908,177.003 278.107,181.596C277.939,182.216 277.772,182.837 277.604,183.457C276.861,182.037 276.894,182.108 276.148,180.673C275.097,178.65 276.186,178.306 274.87,176.398C275.427,174.931 275.365,174.969 275.633,173.478L275.48,172.504Z" style="fill:rgb(89,113,122);fill-opacity:0.21;"/>
        <path d="M186.469,175.977C194.62,176.838 194.667,176.259 198.497,177.539C194.828,177.293 194.883,177.103 191.389,178.103C188.495,178.932 188.39,178.386 186.469,175.977Z" style="fill:rgb(93,119,125);fill-opacity:0.24;"/>
        <path d="M83.593,207.86C77.78,211.194 75.637,211.172 73.531,210.82C75.894,209.133 75.704,208.684 78.525,208.582C81.123,208.487 80.996,207.787 83.593,207.86Z" style="fill:rgb(125,179,180);fill-opacity:0.15;"/>
        <path d="M121.522,210.208C120.873,210.55 117.404,212.379 112.398,211.136C114.564,209.155 117.455,209.481 121.522,210.208Z" style="fill:rgb(152,208,208);fill-opacity:0.14;"/>
        <path d="M348.682,239.859C348.606,239.933 344.95,244.589 339.615,243.861C344.007,240.665 344.502,241.874 348.682,239.859Z" style="fill:rgb(121,184,186);fill-opacity:0.17;"/>
        <path d="M164.453,47.556C168.541,47.948 171.069,50.045 171.54,50.436C172.215,50.996 171.917,51.081 172.32,51.77C171.655,51.639 169.53,51.221 164.552,48.393L164.453,47.556Z" style="fill:rgb(83,108,116);fill-opacity:0.16;"/>
        <path d="M148.474,210.215C154.985,209.89 155.384,208.99 157.601,211.138C152.776,212.474 149.124,210.556 148.474,210.215Z" style="fill:rgb(154,209,211);fill-opacity:0.15;"/>
        <path d="M206.59,241.284C209.036,240.704 208.982,241.393 211.495,241.52C213.578,241.626 213.359,242.546 215.492,242.535C216.917,242.527 216.622,243.009 217.565,244.052C213.978,244.172 213.612,243.048 212.533,243.147C211.137,243.274 207.326,241.469 206.59,241.284Z" style="fill:rgb(112,176,177);fill-opacity:0.18;"/>
        <path d="M147.504,185.177C147.073,185.261 146.929,185.943 146.498,186.027C145.785,186.166 141.689,186.963 137.419,186.143C139.999,183.815 145.758,184.919 147.504,185.177Z" style="fill:rgb(123,179,178);fill-opacity:0.18;"/>
        <path d="M264.338,139.57C264.601,140.019 265.824,143.019 265.947,143.322C265.947,143.322 266.789,145.204 266.862,145.368C266.75,146.074 266.637,146.779 266.525,147.485C263.793,144.025 263.444,143.899 264.338,139.57Z" style="fill:rgb(115,137,140);fill-opacity:0.13;"/>
        <path d="M258.165,151.637C260.108,155.174 260.184,155.162 260.186,155.526C260.197,157.769 260.184,157.756 261.334,159.609C261.311,161.063 261.381,161.024 260.83,162.395C259.789,157.921 259.229,158.171 258.124,153.649C258.138,152.978 258.151,152.307 258.165,151.637Z" style="fill:rgb(63,100,104);fill-opacity:0.19;"/>
        <path d="M236.778,93.296C239.958,96.645 239.812,96.667 242.535,100.475L241.806,100.23C239.587,99.422 238.867,99.882 238.635,97.444C238.601,97.085 238.893,96.628 238.649,96.363C238.094,95.762 237.833,96.201 237.353,95.594C236.164,94.094 236.881,93.706 236.778,93.296Z" style="fill:rgb(83,117,122);fill-opacity:0.19;"/>
        <path d="M149.58,31.248C152.537,32.535 152.596,32.215 155.489,33.532C152.941,33.921 152.974,33.942 150.537,33.298C148.531,32.768 148.653,32.523 146.594,32.172C148.06,31.494 147.977,31.518 149.58,31.248Z" style="fill:rgb(103,135,137);fill-opacity:0.14;"/>
        <path d="M334.267,165.597C334.411,165.69 335.876,166.012 336.878,167.286C337.618,168.227 337.034,168.344 337.509,169.496C338.305,171.428 338.175,171.425 337.541,173.483C336.441,171.397 334.507,166.236 334.267,165.597Z" style="fill:rgb(92,118,126);fill-opacity:0.18;"/>
        <path d="M146.541,160.514C146.326,161.049 144.201,166.346 144.079,167.287C144.056,167.463 144.003,167.432 143.045,169.256C142.778,168.639 142.51,168.023 142.242,167.406C143.371,163.913 143.997,164.311 144.588,163.542C145.18,162.772 144.462,162.573 144.994,161.735C145.079,161.602 145.109,161.645 146.541,160.514Z" style="fill:rgb(83,110,116);fill-opacity:0.18;"/>
        <path d="M195.522,217.28C199.34,217.013 199.487,216.676 200.466,217.572C201.293,218.328 201.403,217.78 202.482,217.849C204.433,217.973 204.576,219.092 204.61,219.124C200.161,219.954 197.358,218.087 195.522,217.28Z" style="fill:rgb(129,184,182);fill-opacity:0.15;"/>
        <path d="M156.5,184.297C152.131,186.096 152.069,186.277 147.504,185.177C148.323,184.71 149.285,183.072 156.5,184.297Z" style="fill:rgb(130,186,187);fill-opacity:0.13;"/>
        <path d="M117.605,201.909C114.342,204.791 113.876,203.32 109.498,202.732C113.412,201.26 113.449,201.122 117.605,201.909Z" style="fill:rgb(146,203,203);fill-opacity:0.12;"/>
        <path d="M254.435,185.897C256.425,186.258 258.415,186.619 260.404,186.98L259.51,187.287C257.34,188.015 257.265,188.781 254.558,187.432C254.283,187.295 251.84,186.343 251.602,186.25C253.132,186.261 253.026,186.225 254.435,185.897Z" style="fill:rgb(95,124,128);fill-opacity:0.18;"/>
        <path d="M374.709,209.916L375.637,209.852C370.254,213.677 366.467,213.816 365.603,213.847C370.2,210.993 370.518,211.858 374.709,209.916Z" style="fill:rgb(98,169,167);fill-opacity:0.21;"/>
        <path d="M279.41,221.878C279.414,221.878 281.264,221.18 283.504,221.434C285.703,221.685 285.485,222.126 287.492,222.827C278.925,223.894 279.42,221.887 279.41,221.878Z" style="fill:rgb(162,199,197);fill-opacity:0.13;"/>
        <path d="M145.474,4.742C148.257,5.9 157.681,7.377 151.457,6.592C149.397,6.332 149.468,6.571 147.544,7.117C145.873,6.843 144.203,6.569 142.532,6.295C144.821,5 144.724,4.975 145.474,4.742Z" style="fill:rgb(83,105,113);fill-opacity:0.17;"/>
        <path d="M205.386,208.901C208.49,208.483 208.419,209.089 211.529,209.372C213.349,209.538 213.274,209.714 214.585,211.046C210.427,210.779 210.33,211.059 209.559,210.387C208.717,209.655 208.623,210.289 207.516,210.096C206.218,209.87 206.352,209.696 205.386,208.901Z" style="fill:rgb(113,173,173);fill-opacity:0.16;"/>
        <path d="M253.21,140.641C256.869,146.105 256.825,146.104 257.143,146.576L255.788,148.382C253.577,142.825 253.388,142.897 253.21,140.641Z" style="fill:rgb(80,114,120);fill-opacity:0.19;"/>
        <path d="M198.461,68.542C203.321,69.239 202.769,71.933 204.292,73.768C203.758,73.553 202.752,73.149 198.445,69.568L198.461,68.542Z" style="fill:rgb(87,119,124);fill-opacity:0.17;"/>
        <path d="M192.353,64.712L193.429,64.602C197.686,64.962 196.871,66.376 198.461,68.542L198.445,69.568C197.975,69.158 194.882,66.46 192.353,64.712Z" style="fill:rgb(99,126,134);fill-opacity:0.2;"/>
        <path d="M346.07,190.671C346.466,194.46 351.215,196.24 347.427,196.14C347.187,196.134 347.216,196.083 344.499,195.493C345.128,194.115 345.051,194.161 345.099,192.608C345.422,191.962 345.746,191.317 346.07,190.671Z" style="fill:rgb(94,122,125);fill-opacity:0.12;"/>
        <path d="M304.47,193.95C308.563,194.421 308.483,194.299 312.497,194.753C308.084,195.833 307.257,197.588 304.47,193.95Z" style="fill:rgb(92,131,136);fill-opacity:0.21;"/>
        <path d="M96.376,195.167C95.8,195.54 91.686,198.208 88.347,198.195C93.055,194.259 94.882,195.183 96.376,195.167Z" style="fill:rgb(115,180,174);fill-opacity:0.16;"/>
        <path d="M122.479,3.738C122.603,3.72 124.986,2.31 128.475,2.858C128.475,2.858 130.329,4.468 130.491,4.608C128.825,4.6 127.159,4.591 125.493,4.583C124.489,4.302 123.484,4.02 122.479,3.738Z" style="fill:rgb(67,93,97);fill-opacity:0.16;"/>
        <path d="M156.616,34.256C157.416,34.378 160.618,34.203 164.571,37.289C164.323,37.248 161.471,36.777 161.471,36.777C158.655,36.648 158.975,35.898 156.616,34.256Z" style="fill:rgb(86,110,119);fill-opacity:0.22;"/>
        <path d="M244.636,103.405C246.555,106.993 247.728,106.365 248.66,110.373C245.285,108.611 245.994,107.98 244.644,104.386L244.636,103.405Z" style="fill:rgb(84,117,122);fill-opacity:0.2;"/>
        <path d="M146.661,99.474C147.179,101.168 147.697,102.862 148.214,104.556C147.238,106.446 147.19,106.341 146.905,107.362C146.513,103.32 145.429,103.297 146.661,99.474Z" style="fill:rgb(94,124,134);fill-opacity:0.14;"/>
        <path d="M117.535,24.278C120.619,24.448 120.596,24.16 123.522,25.249C120.801,26.198 119.423,28.57 117.535,24.278Z" style="fill:rgb(152,171,185);fill-opacity:0.13;"/>
        <path d="M126.504,34.721C129.054,35.583 128.916,35.674 131.365,36.877C130.326,36.831 130.379,36.889 128.565,37.066L123.541,36.178C126.379,34.873 126.257,34.813 126.504,34.721Z" style="fill:rgb(92,113,123);fill-opacity:0.19;"/>
        <path d="M229.514,225.305C232.534,224.688 232.406,225.653 235.479,225.859C237.414,225.989 237.579,227.057 237.623,227.097C236.998,227.202 234.486,228.121 229.514,225.305Z" style="fill:rgb(122,179,182);fill-opacity:0.16;"/>
        <path d="M211.608,66.364C212.079,66.775 216.861,70.949 217.466,71.539C216.843,71.487 212.48,71.127 211.608,66.364Z" style="fill:rgb(88,117,120);fill-opacity:0.21;"/>
        <path d="M260.6,131.458C263.371,136.261 263.688,138.691 263.777,139.367C260.644,134.851 260.789,134.869 260.495,134.503C260.533,133.974 260.243,134.081 260.28,133.576C260.292,133.405 260.304,133.419 260.6,131.458Z" style="fill:rgb(85,116,120);fill-opacity:0.22;"/>
        <path d="M388.717,202.884L389.684,202.869C383.784,207.049 383.569,206.542 381.634,206.864C384.71,204.117 385.036,204.727 388.717,202.884Z" style="fill:rgb(101,171,168);fill-opacity:0.22;"/>
        <path d="M248.66,110.373C248.958,110.668 251.229,111.85 252.603,116.441C250.608,114.747 249.348,115.427 248.66,110.373Z" style="fill:rgb(90,118,124);fill-opacity:0.2;"/>
        <path d="M222.584,245.301C224.309,244.886 224.302,245.132 227.518,245.428C229.362,245.598 229.292,245.764 230.562,247.054C226.251,246.849 226.194,246.944 225.544,246.411C225.348,246.251 224.855,245.847 222.584,245.301Z" style="fill:rgb(121,177,178);fill-opacity:0.19;"/>
        <path d="M70.4,221.168C68.17,222.684 68.422,223.224 66.417,223.291C64.263,223.362 64.456,224.06 62.372,224.224C67.696,220.135 69.325,221.187 70.4,221.168Z" style="fill:rgb(103,164,168);fill-opacity:0.19;"/>
        <path d="M60.377,225.158C59.942,225.371 59.802,225.988 59.367,226.201C57.905,226.918 57.811,226.495 56.321,227.17C55.887,227.367 55.741,227.987 55.302,228.171C54.969,228.311 54.555,227.903 54.225,228.05C53.78,228.248 53.696,229.068 53.21,229.103C52.79,229.133 52.761,228.155 52.341,228.185C56.788,226.046 56.542,225.352 60.377,225.158Z" style="fill:rgb(115,163,164);fill-opacity:0.11;"/>
        <path d="M135.76,68.416C137.408,71.378 136.759,71.583 138.47,74.513C138.039,74.254 137.423,74.475 136.992,74.216C136.674,74.024 135.011,70.713 134.854,70.401C135.156,69.739 135.458,69.078 135.76,68.416Z" style="fill:rgb(87,112,119);fill-opacity:0.2;"/>
        <path d="M400.767,195.997C400.317,196.356 396.322,199.536 394.691,199.859L393.724,199.835C396.945,196.922 398.734,195.877 400.767,195.997Z" style="fill:rgb(112,170,169);fill-opacity:0.16;"/>
        <path d="M182.394,204.906C184.969,204.068 185.684,203.369 188.581,206.028C185.272,205.874 184.833,207.178 182.394,204.906Z" style="fill:rgb(137,190,189);fill-opacity:0.14;"/>
        <path d="M105.38,192.087L106.414,192.254C103.081,193.805 103.118,194.734 99.577,193.682C102.24,192.001 102.272,192.202 105.38,192.087Z" style="fill:rgb(125,187,184);fill-opacity:0.19;"/>
        <path d="M340.616,220.889C338.149,223.112 337.805,222.109 334.501,221.818C335.339,221.31 335.553,219.588 340.616,220.889Z" style="fill:rgb(155,209,209);fill-opacity:0.11;"/>
        <path d="M279.552,189.479C279.976,189.74 279.992,189.645 285.53,191.222C279.96,193.409 279.603,189.974 279.552,189.479Z" style="fill:rgb(93,120,131);fill-opacity:0.19;"/>
        <path d="M207.526,178.333C210.599,178.316 210.506,178.453 213.455,178.992C207.185,182.222 207.579,178.435 207.526,178.333Z" style="fill:rgb(111,144,159);fill-opacity:0.19;"/>
        <path d="M294.412,222.894C297.611,222.411 297.602,222.47 300.519,223.834C294.623,224.692 294.918,223.353 294.412,222.894Z" style="fill:rgb(141,201,204);fill-opacity:0.13;"/>
        <path d="M116.397,189.064L117.48,189.435C116.853,189.646 112.159,191.224 109.381,191.117C111.656,189.379 115.814,189.103 116.397,189.064Z" style="fill:rgb(99,168,167);fill-opacity:0.21;"/>
        <path d="M86.383,199.141C85.302,199.679 83.365,202.041 79.344,202.179C79.672,201.867 80.734,199.599 86.383,199.141Z" style="fill:rgb(111,164,164);fill-opacity:0.2;"/>
        <path d="M178.578,234.319C180.565,233.747 180.504,234.093 182.461,234.624C184.066,235.06 184.067,234.838 185.489,235.798C183.216,236.173 183.305,235.778 180.582,235.131C179.881,234.964 179.279,234.486 178.578,234.319Z" style="fill:rgb(129,183,188);fill-opacity:0.16;"/>
        <path d="M159.389,201.912C162.6,201.407 162.603,201.461 165.508,202.761C160.366,203.456 160.406,202.817 159.389,201.912Z" style="fill:rgb(148,201,204);fill-opacity:0.14;"/>
        <path d="M134.389,26.98L138.387,27.901C137.456,28.331 136.525,28.761 135.595,29.191C132.429,26.97 131.109,29.152 130.581,27.378C130.493,27.085 130.945,28.016 134.389,26.98Z" style="fill:rgb(99,113,117);fill-opacity:0.18;"/>
        <path d="M81.472,217.169C80.957,217.547 80.688,219.38 75.366,219.121C78.243,216.893 78.425,217.208 81.472,217.169Z" style="fill:rgb(120,178,177);fill-opacity:0.17;"/>
        <path d="M263.438,251.857C268.606,251.27 268.422,252.817 273.551,253.099C267.078,253.084 266.906,253.875 263.438,251.857Z" style="fill:rgb(90,134,139);fill-opacity:0.2;"/>
        <path d="M240.396,248.929C243.992,248.086 243.945,248.896 247.547,249.275C246.831,249.491 246.115,249.707 245.399,249.924C242.718,249.947 242.454,250.727 240.396,248.929Z" style="fill:rgb(115,185,179);fill-opacity:0.2;"/>
        <path d="M111.687,22.356L112.502,22.499C112.522,22.508 112.165,22.958 116.512,24.354C110.377,26.706 111.716,22.824 111.687,22.356Z" style="fill:rgb(98,125,130);fill-opacity:0.19;"/>
        <path d="M359.652,215.899L360.644,215.948C358.201,217.712 354.128,217.805 353.541,217.818C353.968,217.535 356.437,215.898 359.652,215.899Z" style="fill:rgb(115,172,174);fill-opacity:0.18;"/>
        <path d="M199.642,57.325L200.617,57.345C202.718,58.888 202.498,59 204.579,60.402L203.601,60.389C199.864,60.005 200.465,59.012 199.642,57.325Z" style="fill:rgb(99,123,130);fill-opacity:0.2;"/>
        <path d="M131.84,60.397C132.398,61.006 132.85,60.68 133.909,64.296C133.869,64.967 133.83,65.639 133.79,66.31C132.266,63.434 131.427,63.663 131.84,60.397Z" style="fill:rgb(80,106,110);fill-opacity:0.17;"/>
        <path d="M148.214,104.556C148.377,105.859 148.54,107.162 148.703,108.465C148.704,109.449 148.705,110.433 148.705,111.417C147.198,107.828 147.094,107.662 146.905,107.362C147.19,106.341 147.238,106.446 148.214,104.556Z" style="fill:rgb(84,106,110);fill-opacity:0.21;"/>
        <path d="M391.387,195.151C389.083,196.561 389.232,197.677 385.576,196.67C387.878,195.214 390.907,195.16 391.387,195.151Z" style="fill:rgb(127,185,182);fill-opacity:0.19;"/>
        <path d="M223.531,77.469C225.105,78.904 225.01,78.882 226.519,80.483L226.661,81.352C225.712,81.289 223.585,82.537 223.531,77.469Z" style="fill:rgb(100,129,131);fill-opacity:0.16;"/>
        <path d="M305.575,251.891C303.055,253.988 302.739,253.06 299.504,252.877C299.776,252.786 300.419,251.025 305.575,251.891Z" style="fill:rgb(115,172,175);fill-opacity:0.17;"/>
        <path d="M138.387,27.901C139.768,28.387 141.148,28.873 142.529,29.359C139.899,30.344 138.431,29.247 135.595,29.191C136.525,28.761 137.456,28.331 138.387,27.901Z" style="fill:rgb(76,103,109);fill-opacity:0.16;"/>
        <path d="M357.524,203.226C355.192,204.703 355.11,204.453 352.419,204.078C354.506,202.259 354.745,202.87 357.524,203.226Z" style="fill:rgb(141,202,206);fill-opacity:0.11;"/>
        <path d="M245.399,249.924C246.115,249.707 246.831,249.491 247.547,249.275C249.241,249.706 249.093,249.835 250.506,250.752C246.703,251.288 246.628,251.045 245.399,249.924Z" style="fill:rgb(149,199,202);fill-opacity:0.12;"/>
        <path d="M262.485,232.203C266.327,231.709 266.399,231.975 267.591,233.132C264.868,233.818 264.796,233.693 262.485,232.203Z" style="fill:rgb(156,206,207);fill-opacity:0.13;"/>
        <path d="M297.471,203.205C302.172,202.361 301.977,203.566 302.59,204.154C299.426,204.805 299.415,204.399 297.471,203.205Z" style="fill:rgb(156,202,200);fill-opacity:0.13;"/>
        <path d="M271.499,199.258C275.259,198.695 275.359,198.916 276.588,200.167C273.917,200.803 273.847,200.693 271.499,199.258Z" style="fill:rgb(153,200,201);fill-opacity:0.13;"/>
        <path d="M361.384,228.16C358.698,229.909 358.717,230.556 355.595,229.696C358.044,228.065 360.905,228.146 361.384,228.16Z" style="fill:rgb(118,177,176);fill-opacity:0.18;"/>
        <path d="M393.724,199.835L394.691,199.859C392.933,201.258 392.791,202.309 389.684,202.869L388.717,202.884C391.341,201.445 391.034,201.063 393.724,199.835Z" style="fill:rgb(102,162,161);fill-opacity:0.2;"/>
        <path d="M270.38,220.872C273.509,220.874 273.562,220.482 276.482,221.735C270.778,222.299 270.92,221.364 270.38,220.872Z" style="fill:rgb(121,174,174);fill-opacity:0.15;"/>
        <path d="M121.487,188.239C119.59,189.315 119.658,189.375 117.48,189.435L116.397,189.064C118.139,187.531 118.321,187.647 121.487,188.239Z" style="fill:rgb(144,197,196);fill-opacity:0.12;"/>
        <path d="M283.511,201.152C288.154,200.633 287.975,201.549 288.598,202.15C285.621,202.772 285.589,202.519 283.511,201.152Z" style="fill:rgb(154,199,198);fill-opacity:0.12;"/>
        <path d="M260.404,186.98C263.655,187.614 263.537,187.787 266.516,188.587L264.527,188.287C263.003,188.53 263.033,188.468 261.589,189.131C260.896,188.516 260.203,187.901 259.51,187.287L260.404,186.98Z" style="fill:rgb(58,100,107);fill-opacity:0.28;"/>
        <path d="M109.516,211.225C107.012,212.305 107.047,212.101 104.414,212.137C106.44,210.226 106.715,210.884 109.516,211.225Z" style="fill:rgb(136,187,188);fill-opacity:0.13;"/>
        <path d="M257.402,218.884C260.126,218.597 260.182,218.366 262.504,219.824C258.088,220.302 258.21,219.622 257.402,218.884Z" style="fill:rgb(137,196,196);fill-opacity:0.13;"/>
        <path d="M246.608,229.112C249.294,229.026 249.565,228.25 251.609,230.1C248.571,230.763 248.635,230.134 246.608,229.112Z" style="fill:rgb(142,185,191);fill-opacity:0.14;"/>
        <path d="M210.485,188.23C213.313,188.057 213.568,187.28 215.6,189.153C211.145,190.209 210.666,188.342 210.485,188.23Z" style="fill:rgb(121,195,198);fill-opacity:0.14;"/>
        <path d="M241.806,100.23L242.535,100.475C242.709,100.695 244.468,103.17 244.636,103.405L244.644,104.386C243.179,103.358 241.998,104.036 241.806,100.23Z" style="fill:rgb(79,100,111);fill-opacity:0.18;"/>
        <path d="M305.48,204.154C308.261,203.888 308.55,203.225 310.582,205.139C307.934,205.097 307.957,205.238 305.48,204.154Z" style="fill:rgb(128,183,181);fill-opacity:0.14;"/>
        <path d="M224.393,212.942C227.055,212.235 227.129,212.397 229.486,213.764C225.201,214.328 225.298,213.727 224.393,212.942Z" style="fill:rgb(133,193,192);fill-opacity:0.13;"/>
        <path d="M238.587,193.1C241.31,193.063 241.605,192.254 243.59,194.137C240.529,194.69 240.61,194.083 238.587,193.1Z" style="fill:rgb(131,181,181);fill-opacity:0.14;"/>
        <path d="M344.525,219.595L345.64,219.99C343.519,221.702 343.338,221.204 340.616,220.889C342.471,219.949 342.399,219.867 344.525,219.595Z" style="fill:rgb(141,183,183);fill-opacity:0.14;"/>
        <path d="M351.489,204.131C349.138,205.413 349.102,205.232 346.418,205.135C348.427,203.258 348.704,203.881 351.489,204.131Z" style="fill:rgb(125,182,181);fill-opacity:0.15;"/>
        <path d="M199.496,177.554C203.091,177.548 203.053,177.423 206.51,178.402L205.501,178.456C203.019,178.547 203.075,178.806 200.619,178.234L199.496,177.554Z" style="fill:rgb(54,103,110);fill-opacity:0.29;"/>
        <path d="M74.598,226.908C72.923,228.401 72.755,227.945 69.609,227.935C72.279,226.567 72.231,226.461 72.49,226.459C73.208,226.452 73.879,226.915 74.598,226.908Z" style="fill:rgb(131,184,184);fill-opacity:0.15;"/>
        <path d="M103.479,212.2C101.148,213.522 101.097,213.314 98.391,213.143C99.087,212.492 98.939,211.669 103.479,212.2Z" style="fill:rgb(116,187,187);fill-opacity:0.15;"/>
        <path d="M343.4,233.093C341.382,234.075 341.452,234.702 338.401,234.065C338.58,233.907 338.268,232.671 343.4,233.093Z" style="fill:rgb(132,181,179);fill-opacity:0.15;"/>
        <path d="M374.386,200.06L375.435,200.297C373.473,201.093 373.542,201.126 371.472,201.401L370.367,201.065C370.411,201.028 370.082,199.608 374.386,200.06Z" style="fill:rgb(130,185,177);fill-opacity:0.16;"/>
        <path d="M160.481,211.214C165.122,210.426 164.931,211.569 165.583,212.15C161.089,212.909 160.747,211.362 160.481,211.214Z" style="fill:rgb(115,180,181);fill-opacity:0.15;"/>
        <path d="M203.601,60.389L204.579,60.402C206.289,61.764 206.209,61.743 207.567,63.426C206.455,62.981 206.448,63.218 205.457,62.581C204.164,61.75 204.414,61.634 203.601,60.389Z" style="fill:rgb(85,109,119);fill-opacity:0.21;"/>
        <path d="M322.594,222.894C320.432,224.663 320.244,224.088 317.482,223.876C317.799,223.743 318.174,222.557 320.515,222.601C320.515,222.601 322.428,222.87 322.594,222.894Z" style="fill:rgb(108,178,178);fill-opacity:0.15;"/>
        <path d="M274.502,234.196C279.175,233.678 279.005,234.593 279.585,235.137C276.878,235.296 276.831,235.485 274.502,234.196Z" style="fill:rgb(114,184,181);fill-opacity:0.15;"/>
        <path d="M249.523,195.281C254.629,194.582 254.329,195.921 254.593,196.182C251.679,196.619 251.74,196.185 249.523,195.281Z" style="fill:rgb(124,171,170);fill-opacity:0.14;"/>
        <path d="M71.285,206.081L72.314,206.167C72.156,206.249 70.827,208.297 67.265,208.232C69.023,206.618 68.976,206.539 71.285,206.081Z" style="fill:rgb(112,166,165);fill-opacity:0.12;"/>
        <path d="M338.707,243.999C338.012,244.607 338.086,246.045 334.635,245.968L333.598,245.761C335.989,244.338 336.148,244.92 338.707,243.999Z" style="fill:rgb(119,173,174);fill-opacity:0.21;"/>
        <path d="M177.421,203.866C180.04,203.773 180.097,203.546 182.394,204.906C179.725,204.848 179.475,205.63 177.421,203.866Z" style="fill:rgb(111,166,164);fill-opacity:0.15;"/>
        <path d="M123.522,25.249C125.163,25.454 126.805,25.658 128.447,25.863C126.95,26.516 127.055,26.54 125.582,27.193C124.444,26.262 124.632,26.18 123.522,25.249Z" style="fill:rgb(94,115,123);fill-opacity:0.23;"/>
        <path d="M254.593,196.182C257.353,196.068 257.627,195.274 259.59,197.117C259.191,197.194 257.15,197.586 254.593,196.182Z" style="fill:rgb(114,166,164);fill-opacity:0.13;"/>
        <path d="M92.5,214.203C91.101,215.147 91.213,215.276 89.472,215.411L88.359,215.013C90.108,213.602 90.232,213.828 92.5,214.203Z" style="fill:rgb(143,192,192);fill-opacity:0.1;"/>
        <path d="M213.503,221.226C217.276,220.496 217.061,221.6 217.615,222.108C215.383,222.565 215.353,222.454 213.503,221.226Z" style="fill:rgb(154,198,199);fill-opacity:0.11;"/>
        <path d="M257.143,146.576C257.241,147.232 257.338,147.888 257.436,148.544C257.399,149.992 257.502,149.947 256.927,151.331C256.448,149.763 256.406,149.855 255.788,148.382L257.143,146.576Z" style="fill:rgb(69,95,98);fill-opacity:0.17;"/>
        <path d="M181.48,214.215C183.731,214.043 183.864,213.595 185.598,215.088C182.155,215.89 182.356,214.813 181.48,214.215Z" style="fill:rgb(121,195,193);fill-opacity:0.11;"/>
        <path d="M195.499,186.158C199.481,185.577 199.176,186.793 199.565,187.183C197.383,187.239 197.357,187.383 195.499,186.158Z" style="fill:rgb(133,186,187);fill-opacity:0.12;"/>
        <path d="M200.393,207.883C202.608,207.797 202.932,207.166 204.555,209.07C202.22,209.121 202.079,209.402 200.393,207.883Z" style="fill:rgb(124,171,170);fill-opacity:0.15;"/>
        <path d="M169.37,231.892C171.436,231.816 171.766,231.015 173.572,233.068C171.256,233.146 171.106,233.44 169.37,231.892Z" style="fill:rgb(131,177,176);fill-opacity:0.14;"/>
        <path d="M347.47,232.194C345.658,233.361 345.645,233.184 343.4,233.093C345.117,231.597 345.257,231.817 347.47,232.194Z" style="fill:rgb(127,191,190);fill-opacity:0.11;"/>
        <path d="M69.609,227.935C67.916,229.404 67.763,229.156 65.54,228.768C67.396,227.599 67.433,227.514 69.609,227.935Z" style="fill:rgb(135,183,182);fill-opacity:0.11;"/>
        <path d="M378.462,199.215C377.02,200.116 377.107,200.202 375.435,200.297L374.386,200.06C376.1,198.609 376.234,198.833 378.462,199.215Z" style="fill:rgb(125,182,180);fill-opacity:0.11;"/>
        <path d="M207.567,63.426C210.035,64.189 209.731,64.538 211.608,66.364C211.021,66.104 210.271,66.529 209.683,66.269C209.43,66.157 209.743,65.641 209.542,65.45C209.329,65.248 208.886,65.511 208.673,65.309C207.853,64.531 208.357,64.3 207.567,63.426Z" style="fill:rgb(74,103,112);fill-opacity:0.27;"/>
        <path d="M240.393,215.916C242.564,215.824 242.892,215.151 244.555,217.061C242.281,217.12 242.131,217.434 240.393,215.916Z" style="fill:rgb(120,172,172);fill-opacity:0.15;"/>
        <path d="M322.499,195.506C324.612,195.463 324.504,195.466 326.506,195.638C322.883,198.25 322.85,196.034 322.499,195.506Z" style="fill:rgb(14,152,156);fill-opacity:0.2;"/>
        <path d="M74.277,204.241C74.995,204.287 75.713,204.332 76.431,204.378C74.308,205.176 72.636,206.007 72.314,206.167L71.285,206.081C72.752,205.059 72.944,205.451 74.277,204.241Z" style="fill:rgb(99,165,164);fill-opacity:0.22;"/>
        <path d="M251.609,230.1C253.815,229.847 253.956,229.609 255.603,231.123C253.45,231.388 253.434,231.315 251.609,230.1Z" style="fill:rgb(121,173,173);fill-opacity:0.13;"/>
        <path d="M189.389,205.872C191.596,205.827 191.604,205.601 193.49,206.743C189.352,207.47 189.7,206.157 189.389,205.872Z" style="fill:rgb(125,178,176);fill-opacity:0.11;"/>
        <path d="M168.512,212.161C172.728,211.587 172.327,212.916 172.581,213.159C170.371,213.202 170.347,213.303 168.512,212.161Z" style="fill:rgb(119,175,173);fill-opacity:0.13;"/>
        <path d="M337.455,234.134C335.6,235.248 335.587,235.128 333.417,235.134C335.043,233.62 335.201,233.857 337.455,234.134Z" style="fill:rgb(122,167,165);fill-opacity:0.14;"/>
        <path d="M367.666,229.692C366.345,231.118 366.622,231.47 364.722,231.946L363.697,231.829C365.479,230.238 365.335,230.003 367.666,229.692Z" style="fill:rgb(110,171,170);fill-opacity:0.16;"/>
        <path d="M267.591,233.132C270.316,233.074 270.529,232.347 272.595,234.126C272.19,234.181 270.043,234.473 267.591,233.132Z" style="fill:rgb(97,154,154);fill-opacity:0.16;"/>
        <path d="M276.588,200.167C279.299,200.102 279.557,199.349 281.582,201.119C281.179,201.176 279.18,201.464 276.588,200.167Z" style="fill:rgb(88,153,152);fill-opacity:0.16;"/>
        <path d="M95.619,204.907C95.552,204.965 95.873,206.379 91.619,205.909C93.435,204.614 93.475,204.85 95.619,204.907Z" style="fill:rgb(126,180,180);fill-opacity:0.13;"/>
        <path d="M228.509,191.25C232.488,190.491 232.163,191.744 232.615,192.175C229.182,192.522 229.379,191.742 228.509,191.25Z" style="fill:rgb(113,182,180);fill-opacity:0.12;"/>
        <path d="M234.5,192.281C238.318,191.538 238.093,192.673 238.587,193.1C236.415,193.165 236.395,193.437 234.5,192.281Z" style="fill:rgb(100,176,175);fill-opacity:0.13;"/>
        <path d="M81.532,225.775C77.753,227.08 77.762,226.608 75.538,226.848C76.439,226.59 76.216,225.604 81.532,225.775Z" style="fill:rgb(87,140,144);fill-opacity:0.17;"/>
        <path d="M143.4,226.901C147.355,226.174 147.481,227.805 147.511,227.824C143.773,228.35 143.979,227.378 143.4,226.901Z" style="fill:rgb(110,180,176);fill-opacity:0.13;"/>
        <path d="M333.598,245.761L334.635,245.968C332.941,247.333 332.831,247.159 330.624,246.881C331.978,245.967 331.891,245.864 333.598,245.761Z" style="fill:rgb(118,175,173);fill-opacity:0.13;"/>
        <path d="M174.514,213.23C178.24,212.501 178.014,213.603 178.626,214.123C176.472,214.155 176.458,214.311 174.514,213.23Z" style="fill:rgb(141,179,178);fill-opacity:0.16;"/>
        <path d="M215.387,210.862C217.713,210.837 217.964,210.317 219.559,212.063C217.281,212.079 217.153,212.338 215.387,210.862Z" style="fill:rgb(106,158,158);fill-opacity:0.16;"/>
        <path d="M350.489,238.477C351.233,238.572 351.976,238.667 352.719,238.762C351.059,240.272 350.887,239.815 348.682,239.859C349.284,239.398 349.887,238.938 350.489,238.477Z" style="fill:rgb(120,165,165);fill-opacity:0.15;"/>
        <path d="M145.605,30.271C147.672,30.643 147.602,30.624 149.58,31.248C147.977,31.518 148.06,31.494 146.594,32.172C146.469,32.079 146.498,31.853 146.373,31.759C145.676,31.237 146.029,31.092 145.605,30.271Z" style="fill:rgb(124,143,147);fill-opacity:0.24;"/>
        <path d="M165.387,230.923C167.571,230.918 167.59,230.715 169.37,231.892C167.145,232.119 167.083,232.281 165.387,230.923Z" style="fill:rgb(104,161,162);fill-opacity:0.14;"/>
        <path d="M364.484,202.266C362.568,203.311 362.587,203.139 360.378,203.142C362.061,201.669 362.238,202.257 364.484,202.266Z" style="fill:rgb(105,170,169);fill-opacity:0.14;"/>
        <path d="M149.381,227.886C153.215,227.352 152.941,228.439 153.493,228.76C149.579,229.41 149.731,228.178 149.381,227.886Z" style="fill:rgb(114,165,170);fill-opacity:0.14;"/>
        <path d="M220.397,211.897C224.524,211.429 224.171,212.794 224.393,212.942C222.167,213.118 222.11,213.258 220.397,211.897Z" style="fill:rgb(98,167,163);fill-opacity:0.14;"/>
        <path d="M245.378,216.898C249.357,216.328 249.191,217.603 249.494,217.782C245.566,218.388 245.7,217.162 245.378,216.898Z" style="fill:rgb(104,169,168);fill-opacity:0.13;"/>
        <path d="M174.378,232.887C176.535,232.942 176.526,232.768 178.384,233.908C176.203,234.124 176.13,234.303 174.378,232.887Z" style="fill:rgb(110,164,162);fill-opacity:0.16;"/>
        <path d="M109.381,191.117C107.978,191.947 108.077,192.049 106.414,192.254L105.38,192.087C107.067,190.611 107.206,190.863 109.381,191.117Z" style="fill:rgb(122,163,162);fill-opacity:0.16;"/>
        <path d="M233.681,89.313C235.189,90.824 235.185,90.718 236.48,92.516C234.033,92.123 233.992,91.765 233.681,89.313Z" style="fill:rgb(58,92,97);fill-opacity:0.25;"/>
        <path d="M273.71,166.43C274.832,168.195 274.427,168.258 274.722,170.405C274.6,170.226 274.489,170.332 272.969,168.332C273.216,167.698 273.463,167.064 273.71,166.43Z" style="fill:rgb(69,97,113);fill-opacity:0.27;"/>
        <path d="M242.516,228.273C246.461,227.565 246.475,229.004 246.608,229.112C244.39,229.089 244.412,229.242 242.516,228.273Z" style="fill:rgb(96,161,159);fill-opacity:0.15;"/>
        <path d="M363.665,214.813C362.393,215.906 362.35,215.754 360.644,215.948L359.652,215.899C361.471,214.726 361.464,214.889 363.665,214.813Z" style="fill:rgb(117,172,169);fill-opacity:0.18;"/>
        <path d="M149.585,147.51C149.297,150.606 149.375,150.514 148.822,153.565C148.775,152.235 148.729,150.905 148.682,149.575C148.983,148.887 149.284,148.198 149.585,147.51Z" style="fill:rgb(63,91,94);fill-opacity:0.37;"/>
        <path d="M257.436,148.544C257.679,149.575 257.922,150.606 258.165,151.637C258.151,152.307 258.138,152.978 258.124,153.649C257.628,152.437 257.41,152.618 256.927,151.331C257.502,149.947 257.399,149.992 257.436,148.544Z" style="fill:rgb(65,89,92);fill-opacity:0.2;"/>
        <path d="M330.584,221.899C328.814,223.238 328.737,223.099 326.503,222.815C326.918,222.598 326.654,221.619 330.584,221.899Z" style="fill:rgb(88,156,153);fill-opacity:0.16;"/>
        <path d="M264.388,219.895C266.599,219.649 266.562,219.713 268.502,220.741C264.657,221.403 264.836,220.26 264.388,219.895Z" style="fill:rgb(102,163,162);fill-opacity:0.16;"/>
        <path d="M88.359,215.013L89.472,215.411C89.195,215.53 89.372,216.466 85.369,216.094C86.677,215.083 86.711,215.248 88.359,215.013Z" style="fill:rgb(98,163,168);fill-opacity:0.18;"/>
        <path d="M134.5,186.138C132.548,187.152 132.577,187.208 130.432,187.162C132.311,186.067 132.256,185.9 134.5,186.138Z" style="fill:rgb(86,149,150);fill-opacity:0.18;"/>
        <path d="M190.285,62.753C193.093,63.837 193.181,63.502 193.359,63.687C193.572,63.907 193.217,64.382 193.429,64.602L192.353,64.712C191.259,63.736 191.318,63.789 190.285,62.753Z" style="fill:rgb(62,95,100);fill-opacity:0.22;"/>
        <path d="M252.385,217.905C254.694,217.917 254.908,217.414 256.573,219.058C254.28,218.842 254.177,219.297 252.385,217.905Z" style="fill:rgb(99,149,148);fill-opacity:0.21;"/>
        <path d="M185.598,215.088C187.613,214.904 187.507,215.193 189.403,215.74C187.387,216.283 187.379,216.129 185.598,215.088Z" style="fill:rgb(118,164,163);fill-opacity:0.16;"/>
        <path d="M216.435,188.989C216.578,188.984 216.575,188.997 220.401,189.744C218.274,190.348 218.081,190.519 216.435,188.989Z" style="fill:rgb(101,150,150);fill-opacity:0.19;"/>
        <path d="M86.588,224.941C84.664,225.969 84.692,226.099 82.515,225.787C82.574,225.759 82.256,224.691 86.588,224.941Z" style="fill:rgb(41,177,177);fill-opacity:0.16;"/>
        <path d="M170.388,202.942C172.583,202.771 172.528,202.802 174.484,203.759C172.267,204.109 172.218,204.257 170.388,202.942Z" style="fill:rgb(75,156,155);fill-opacity:0.17;"/>
        <path d="M161.606,230.241C163.619,229.741 163.617,229.895 165.387,230.923C163.42,231.068 163.528,230.8 161.606,230.241Z" style="fill:rgb(113,161,164);fill-opacity:0.16;"/>
        <path d="M213.455,178.992C214.493,179.172 214.415,179.082 215.543,179.277C215.777,179.318 215.76,179.317 218.467,179.815C215.674,180.078 215.362,180.958 213.455,178.992Z" style="fill:rgb(36,87,94);fill-opacity:0.35;"/>
        <path d="M217.466,71.539C219.046,72.967 218.981,72.91 220.544,74.455L219.671,74.325C219.446,74.117 218.98,74.455 218.755,74.247C218.537,74.044 218.842,73.575 218.633,73.363C218.227,72.95 218.035,73.666 217.759,73.235C217.272,72.474 217.993,72.363 217.466,71.539Z" style="fill:rgb(56,96,100);fill-opacity:0.31;"/>
        <path d="M245.492,184.533C247.655,184.581 247.58,184.616 249.507,185.423C248.221,185.356 246.934,185.29 245.647,185.224L245.492,184.533Z" style="fill:rgb(50,128,133);fill-opacity:0.27;"/>
        <path d="M376.58,208.684C377.277,208.694 377.973,208.704 378.67,208.714C377.385,209.882 377.323,209.714 375.637,209.852L374.709,209.916C375.333,209.505 375.956,209.094 376.58,208.684Z" style="fill:rgb(80,151,146);fill-opacity:0.16;"/>
        <path d="M344.525,219.595C346.431,218.901 346.426,218.804 348.417,219.297C347.04,219.732 347.134,219.73 345.64,219.99L344.525,219.595Z" style="fill:rgb(109,177,176);fill-opacity:0.22;"/>
        <path d="M138.607,226.217C140.771,225.783 140.912,225.505 142.556,227.041C142.234,227.04 142.248,227.015 138.607,226.217Z" style="fill:rgb(88,151,148);fill-opacity:0.22;"/>
        <path d="M290.524,202.299C292.695,202.339 292.832,201.814 294.603,203.162C292.393,203.093 292.46,203.16 290.524,202.299Z" style="fill:rgb(90,140,138);fill-opacity:0.2;"/>
        <path d="M148.703,108.465C149.343,110.943 149.312,110.873 149.545,113.496C149.265,112.803 148.985,112.11 148.705,111.417C148.705,110.433 148.704,109.449 148.703,108.465Z" style="fill:rgb(60,86,93);fill-opacity:0.37;"/>
        <path d="M77.353,203.121L76.431,204.378C75.713,204.332 74.995,204.287 74.277,204.241C75.554,203.092 75.61,203.238 77.353,203.121Z" style="fill:rgb(141,176,176);fill-opacity:0.11;"/>
        <path d="M367.609,201.769C368.992,201.315 368.928,201.316 370.367,201.065L371.472,201.401C369.54,202.043 369.571,202.118 367.609,201.769Z" style="fill:rgb(100,163,163);fill-opacity:0.24;"/>
        <path d="M122.479,3.738C123.484,4.02 124.489,4.302 125.493,4.583C123.501,4.403 121.509,4.222 119.517,4.041C120.504,3.94 121.492,3.839 122.479,3.738Z" style="fill:rgb(50,83,90);fill-opacity:0.44;"/>
        <path d="M202.521,187.251C204.581,187.33 204.481,187.318 206.381,187.817C204.391,188.115 204.416,188.043 202.521,187.251Z" style="fill:rgb(64,147,146);fill-opacity:0.19;"/>
        <path d="M91.619,205.909C90.099,206.712 90.137,206.54 88.525,206.773C89.556,206.485 90.588,206.197 91.619,205.909Z" style="fill:rgb(98,152,152);fill-opacity:0.13;"/>
        <path d="M156.382,228.915C157.419,229.217 158.455,229.518 159.492,229.82C157.866,229.545 157.852,229.717 156.382,228.915Z" style="fill:rgb(110,157,156);fill-opacity:0.16;"/>
        <path d="M61.622,229.9C60.139,230.717 60.185,230.596 58.562,230.92C59.582,230.58 60.602,230.24 61.622,229.9Z" style="fill:rgb(90,151,149);fill-opacity:0.13;"/>
        <path d="M133.909,64.296C134.788,65.684 134.699,65.676 134.925,67.284L133.79,66.31C133.83,65.639 133.869,64.967 133.909,64.296Z" style="fill:rgb(59,87,93);fill-opacity:0.27;"/>
        <path d="M231.378,213.909C232.414,214.207 233.45,214.506 234.485,214.805C232.832,214.519 232.829,214.702 231.378,213.909Z" style="fill:rgb(111,152,153);fill-opacity:0.17;"/>
        <path d="M222.511,190.168C224.194,190.306 224.243,190.079 225.584,191.144C222.355,191.195 222.746,190.272 222.511,190.168Z" style="fill:rgb(74,151,151);fill-opacity:0.16;"/>
        <path d="M250.512,185.427C251.82,185.584 253.127,185.74 254.435,185.897C253.026,186.225 253.132,186.261 251.602,186.25L250.512,185.427Z" style="fill:rgb(59,93,101);fill-opacity:0.35;"/>
        <path d="M252.77,137.402C253.154,139.878 253.188,139.81 253.21,140.641C252.959,140.339 252.805,140.716 252.591,140.458C252.522,140.375 252.591,140.458 251.9,139.308C252.19,138.673 252.48,138.037 252.77,137.402Z" style="fill:rgb(48,69,73);fill-opacity:0.19;"/>
        <path d="M99.379,194.107C98.378,194.46 97.377,194.814 96.376,195.167C97.638,194.123 97.693,194.279 99.379,194.107Z" style="fill:rgb(113,159,158);fill-opacity:0.17;"/>
        <path d="M278.107,181.596C278.269,182.891 278.432,184.186 278.594,185.482C278.264,184.807 277.934,184.132 277.604,183.457C277.772,182.837 277.939,182.216 278.107,181.596Z" style="fill:rgb(54,91,95);fill-opacity:0.35;"/>
        <path d="M231.378,246.899C232.412,247.2 233.447,247.502 234.482,247.803C232.792,247.71 232.744,247.927 231.378,246.899Z" style="fill:rgb(100,155,154);fill-opacity:0.18;"/>
        <path d="M208.424,25.593C210.064,25.766 209.935,25.941 211.625,26.142L209.403,26.73L208.527,26.446L208.424,25.593Z" style="fill:rgb(43,67,71);fill-opacity:0.18;"/>
        <path d="M200.619,178.234C203.075,178.806 203.019,178.547 205.501,178.456C202.969,179.066 202.899,179.368 200.619,178.234Z" style="fill:rgb(49,83,87);fill-opacity:0.13;"/>
        <path d="M351.462,231.217C350.437,231.526 349.411,231.834 348.386,232.143C349.719,231.11 349.77,231.311 351.462,231.217Z" style="fill:rgb(105,148,146);fill-opacity:0.2;"/>
        <path d="M352.628,217.89C351.287,218.896 351.24,218.706 349.541,218.831C350.57,218.517 351.599,218.204 352.628,217.89Z" style="fill:rgb(109,146,150);fill-opacity:0.2;"/>
        <path d="M142.242,167.406C142.51,168.023 142.778,168.639 143.045,169.256C142.961,169.385 142.839,169.245 141.751,170.677C141.765,170.413 141.844,170.494 142.242,167.406Z" style="fill:rgb(45,65,71);fill-opacity:0.22;"/>
        <path d="M64.624,228.859C63.343,229.861 63.308,229.544 61.622,229.9C62.623,229.553 63.623,229.206 64.624,228.859Z" style="fill:rgb(104,148,143);fill-opacity:0.19;"/>
        <path d="M97.462,213.233C96.433,213.528 95.404,213.822 94.375,214.117C95.738,213.108 95.786,213.313 97.462,213.233Z" style="fill:rgb(99,142,151);fill-opacity:0.2;"/>
        <path d="M327.541,247.809C328.978,247.22 328.88,246.947 330.414,247.305C329.456,247.473 328.499,247.641 327.541,247.809Z" style="fill:rgb(92,176,174);fill-opacity:0.15;"/>
        <path d="M172.32,51.77C172.992,51.78 172.92,51.802 175.628,52.149L173.424,52.669C173.056,52.369 172.688,52.069 172.32,51.77Z" style="fill:rgb(51,66,72);fill-opacity:0.2;"/>
        <path d="M379.655,207.812C379.326,208.112 378.998,208.413 378.67,208.714C377.973,208.704 377.277,208.694 376.58,208.684C378.785,207.955 378.673,207.887 379.655,207.812Z" style="fill:rgb(79,149,147);fill-opacity:0.24;"/>
        <path d="M282.51,235.22C283.477,235.384 284.444,235.549 285.41,235.713C283.833,236.032 283.916,235.772 282.51,235.22Z" style="fill:rgb(118,172,172);fill-opacity:0.16;"/>
        <path d="M75.366,219.121C74.372,219.492 73.379,219.862 72.385,220.232C73.696,219.244 73.712,219.38 75.366,219.121Z" style="fill:rgb(94,137,134);fill-opacity:0.17;"/>
        <path d="M217.615,222.108C218.549,222.304 219.484,222.501 220.419,222.697C218.892,223.023 218.999,222.741 217.615,222.108Z" style="fill:rgb(95,158,158);fill-opacity:0.17;"/>
        <path d="M382.585,197.7C383.513,197.499 384.44,197.299 385.368,197.098C384.017,197.744 384.071,198.022 382.585,197.7Z" style="fill:rgb(104,159,158);fill-opacity:0.18;"/>
        <path d="M204.61,219.124C205.542,219.327 206.474,219.529 207.406,219.732C205.901,220.018 206.004,219.763 204.61,219.124Z" style="fill:rgb(94,155,154);fill-opacity:0.17;"/>
        <path d="M334.465,162.512C334.917,164.131 334.865,164.11 334.267,165.597C334.205,165.267 334.144,164.936 334.083,164.606C334.21,163.908 334.337,163.21 334.465,162.512Z" style="fill:rgb(65,81,87);fill-opacity:0.17;"/>
        <path d="M379.605,198.723C380.529,198.523 381.454,198.324 382.379,198.124C381.031,198.712 381.148,198.987 379.605,198.723Z" style="fill:rgb(85,158,158);fill-opacity:0.18;"/>
        <path d="M246.18,123.576C246.148,124.121 246.168,124.063 246.272,126.665L245.682,126.401L245.352,125.57C245.628,124.905 245.904,124.24 246.18,123.576Z" style="fill:rgb(34,55,60);fill-opacity:0.2;"/>
        <path d="M221.536,75.464C221.695,75.625 222.526,76.474 223.531,77.469C220.642,77.029 221.669,75.671 221.536,75.464Z" style="fill:rgb(56,92,95);fill-opacity:0.33;"/>
        <path d="M393.606,193.711C394.968,193.298 394.875,193.299 396.354,193.069C395.018,193.761 395.073,194.054 393.606,193.711Z" style="fill:rgb(112,159,158);fill-opacity:0.15;"/>
        <path d="M128.447,25.863L129.415,25.99C127.585,26.987 127.633,27.05 125.582,27.193C127.055,26.54 126.95,26.516 128.447,25.863Z" style="fill:rgb(53,67,74);fill-opacity:0.19;"/>
        <path d="M245.647,185.224C246.934,185.29 248.221,185.356 249.507,185.423C247.541,186.098 247.495,186.113 245.647,185.224Z" style="fill:rgb(41,86,89);fill-opacity:0.15;"/>
        <path d="M131.365,36.877L132.477,37.62C131.173,37.435 129.869,37.25 128.565,37.066C130.379,36.889 130.326,36.831 131.365,36.877Z" style="fill:rgb(58,91,94);fill-opacity:0.4;"/>
        <path d="M237.623,227.097C238.54,227.334 239.457,227.571 240.373,227.809C238.854,227.98 238.961,227.704 237.623,227.097Z" style="fill:rgb(87,142,141);fill-opacity:0.2;"/>
        <path d="M135.497,67.501L135.76,68.416C135.458,69.078 135.156,69.739 134.854,70.401C134.931,68.892 134.996,68.976 135.497,67.501Z" style="fill:rgb(43,64,71);fill-opacity:0.14;"/>
        <path d="M154.46,7.847C156.232,6.904 156.967,5.65 157.395,7.647C157.444,7.877 157.128,7.21 154.46,7.847Z" style="fill:rgb(90,97,110);fill-opacity:0.09;"/>
        <path d="M264.527,188.287C263.081,188.892 263.205,189.061 261.589,189.131C263.033,188.468 263.003,188.53 264.527,188.287Z" style="fill:rgb(43,63,65);fill-opacity:0.09;"/>
        <path d="M252.603,116.441C252.971,117.091 253.338,117.741 253.706,118.392L253.69,119.418C253.328,118.425 252.965,117.433 252.603,116.441Z" style="fill:rgb(43,73,77);fill-opacity:0.36;"/>
        <path d="M219.671,74.325L220.544,74.455C220.875,74.792 221.206,75.128 221.536,75.464C221.111,75.409 221.201,75.364 220.695,75.3C219.957,75.205 220.258,74.884 219.671,74.325Z" style="fill:rgb(62,93,103);fill-opacity:0.29;"/>
        <path d="M265.195,169.57C265.031,171.178 264.897,171.095 264.25,172.552C264.565,171.558 264.88,170.564 265.195,169.57Z" style="fill:rgb(36,65,67);fill-opacity:0.1;"/>
        <path d="M260.6,131.458C260.304,133.419 260.292,133.405 260.28,133.576C260.243,134.081 260.533,133.974 260.495,134.503C260.047,132.932 260.057,132.956 260.6,131.458Z" style="fill:rgb(70,96,100);fill-opacity:0.12;"/>
        <path d="M267.627,186.494C267.574,186.865 268.138,187.149 268.086,187.52C268.086,187.52 266.642,188.502 266.516,188.587C266.635,188.439 266.487,188.425 267.627,186.494Z" style="fill:rgb(44,80,86);fill-opacity:0.46;"/>
        <path d="M222.485,180.585C223.471,180.661 224.457,180.737 225.444,180.813C223.951,181.081 223.978,181.048 222.485,180.585Z" style="fill:rgb(35,67,123);fill-opacity:0.39;"/>
        <path d="M275.633,173.478C275.365,174.969 275.427,174.931 274.87,176.398C274.975,174.82 275.082,174.895 275.633,173.478Z" style="fill:rgb(51,65,70);fill-opacity:0.12;"/>
        <path d="M294.462,193.8C295.477,193.668 296.492,193.536 297.507,193.405C296.036,193.975 296.093,194.047 294.462,193.8Z" style="fill:rgb(70,95,98);fill-opacity:0.11;"/>
        <path d="M278.594,185.482C279.084,186.895 279.148,186.857 278.992,188.306C278.859,187.365 278.727,186.423 278.594,185.482Z" style="fill:rgb(67,88,97);fill-opacity:0.35;"/>
        <path d="M106.498,1.739L109.511,1.733C107.973,2.063 108.008,2.054 106.498,1.739Z" style="fill:rgb(41,45,46);fill-opacity:0.02;"/>
        <path d="M288.476,191.634C289.454,191.731 290.433,191.827 291.411,191.924C289.887,192.05 289.959,192.025 288.476,191.634Z" style="fill:rgb(28,86,93);fill-opacity:0.39;"/>
    </g>
</svg>
